<svg width="24" height="24" viewBox="0 0 24 24" fill="none" xmlns="http://www.w3.org/2000/svg">
<path d="M6.45219 11.6877C7.22467 11.6878 7.99046 11.8394 8.70414 12.1343C9.41758 12.4293 10.0662 12.8617 10.6123 13.4065C11.1586 13.9516 11.5927 14.5992 11.8883 15.3113C12.1839 16.0234 12.336 16.7874 12.336 17.5582C12.3359 18.329 12.183 19.0929 11.8874 19.8051C11.5917 20.517 11.1594 21.1649 10.6133 21.7099C10.2253 22.097 9.59555 22.0964 9.20716 21.7099L6.0356 18.5455C6.07004 18.6461 6.08998 18.7539 6.08998 18.8662C6.08984 19.414 5.64458 19.8582 5.09559 19.8584C4.54649 19.8584 4.10134 19.414 4.1012 18.8662C4.1012 18.3183 4.5464 17.8741 5.09559 17.8741C5.20781 17.8741 5.31543 17.8931 5.41605 17.9273L2.29109 14.8095C1.90303 14.422 1.90291 13.7939 2.29109 13.4065C2.83724 12.8617 3.4858 12.4293 4.19928 12.1343C4.91311 11.8394 5.67956 11.6877 6.45219 11.6877ZM21.7089 16.1804C22.0969 16.5679 22.0971 17.196 21.7089 17.5834L18.7257 20.5598C18.3375 20.9471 17.7079 20.9469 17.3196 20.5598L13.8392 17.0873L15.2454 15.6844L18.0227 18.4554L19.5997 16.8819L16.8224 14.1109L18.2285 12.7079L21.7089 16.1804ZM6.45219 13.672C5.94076 13.672 5.43312 13.7723 4.96061 13.9675C4.79921 14.0342 4.64289 14.1127 4.49254 14.2L9.817 19.5125C9.90457 19.3623 9.98411 19.2066 10.051 19.0455C10.2467 18.5741 10.3472 18.0683 10.3472 17.5582C10.3472 17.048 10.2467 16.5414 10.051 16.07C9.85532 15.5988 9.56765 15.1702 9.20619 14.8095C8.84471 14.4489 8.41502 14.1628 7.94281 13.9675C7.47045 13.7723 6.96347 13.6721 6.45219 13.672ZM15.0395 4.97617C15.3031 4.97625 15.5561 5.08085 15.7426 5.26684L18.7257 8.24327C19.1137 8.63076 19.114 9.25889 18.7257 9.64623L13.3634 14.9955C13.3319 14.9109 13.3009 14.8251 13.2663 14.7416C13.0348 14.184 12.7355 13.6576 12.3768 13.1749L16.6165 8.94475L15.0395 7.37127L10.791 11.6092C10.3219 11.2686 9.81356 10.9821 9.27514 10.7595C9.16924 10.7157 9.06132 10.6751 8.95371 10.6364L14.3364 5.26684L14.4093 5.20095C14.5862 5.05628 14.8087 4.97617 15.0395 4.97617ZM6.45705 2.22258C6.84762 1.90481 7.42339 1.92718 7.78743 2.2904L11.2678 5.76291L9.86167 7.16587L7.08437 4.39483L5.50733 5.96832L8.28463 8.73935L6.8785 10.1423L3.39813 6.66979C3.00982 6.28236 3.00987 5.6543 3.39813 5.26684L6.3813 2.2904L6.45705 2.22258Z" fill="#313D53"/>
</svg>
