<svg width="24" height="24" viewBox="0 0 24 24" fill="none" xmlns="http://www.w3.org/2000/svg">
<path d="M12 2.00017C12.5523 2.00017 13 2.44788 13 3.00017C12.9999 3.55242 12.5522 4.00017 12 4.00017C7.58172 4.00017 4 7.58189 4 12.0001C4.00004 16.4184 7.58174 20.0001 12 20.0001C16.4182 20.0001 19.9999 16.4184 20 12.0001C20 11.4479 20.4477 11.0001 21 11.0001C21.5523 11.0001 22 11.4479 22 12.0001C21.9999 17.523 17.5228 22.0001 12 22.0001C6.47717 22.0001 2.00004 17.523 2 12.0001C2 6.47732 6.47715 2.00017 12 2.00017ZM12 6.00017C12.5523 6.00017 13 6.44788 13 7.00017C12.9999 7.55242 12.5522 8.00017 12 8.00017C9.79085 8.00017 7.99999 9.79103 7.99999 12.0001C8.00004 14.2093 9.79088 16.0001 12 16.0001C14.2091 16.0001 15.9999 14.2093 16 12.0001C16 11.4479 16.4477 11.0001 17 11.0001C17.5523 11.0001 18 11.4479 18 12.0001C17.9999 15.3138 15.3137 18.0001 12 18.0001C8.68631 18.0001 6.00004 15.3138 6 12.0001C6 8.68646 8.68629 6.00017 12 6.00017ZM17.6562 2.10075C18.0468 1.71023 18.6807 1.71023 19.0713 2.10075C19.4614 2.49123 19.4615 3.12437 19.0713 3.51481L18.3633 4.22087L18.3642 4.22185C17.9737 4.61237 17.9737 5.24538 18.3642 5.63591C18.7548 6.0263 19.3878 6.02639 19.7783 5.63591L20.4853 4.92888C20.8759 4.53857 21.5089 4.53844 21.8994 4.92888C22.2899 5.31933 22.2897 5.9524 21.8994 6.34294L19.7783 8.46501C19.5909 8.65242 19.3363 8.75689 19.0713 8.757H16.6572L12.707 12.7072C12.3165 13.0975 11.6834 13.0976 11.293 12.7072C10.9025 12.3167 10.9026 11.6837 11.293 11.2931L15.2422 7.34392V4.92888C15.2422 4.66374 15.3477 4.40934 15.5351 4.22185L17.6562 2.10075Z" fill="#313D53"/>
</svg>
