<svg width="24" height="24" viewBox="0 0 24 24" fill="none" xmlns="http://www.w3.org/2000/svg">
<path d="M22 12.5V20C22 20.5523 21.5523 21 21 21H20C19.4477 21 19 20.5523 19 20V19H5V20C5 20.5523 4.55228 21 4 21H3C2.44772 21 2 20.5523 2 20V12.5L0.757464 12.1894C0.312297 12.0781 0 11.6781 0 11.2192V10.5C0 10.2239 0.223858 10 0.5 10H2.375L4.51334 4.29775C4.80607 3.51715 5.55231 3 6.386 3H17.614C18.4477 3 19.1939 3.51715 19.4867 4.29775L21.625 10H23.5C23.7761 10 24 10.2239 24 10.5V11.2192C24 11.6781 23.6877 12.0781 23.2425 12.1894L22 12.5ZM4 14V16C4 16.5523 4.44772 17 5 17H8.24496C8.3272 17 8.40818 16.9797 8.4807 16.9409C8.72418 16.8107 8.81602 16.5078 8.68582 16.2643C7.87862 14.7548 6.31672 14 4 14ZM20 14C17.6833 14 16.1213 14.7548 15.3141 16.2643C15.1839 16.5078 15.2758 16.8107 15.5193 16.9409C15.5918 16.9797 15.6728 17 15.755 17H19C19.5523 17 20 16.5523 20 16V14ZM6 5L4.43874 9.6838C4.40475 9.7857 4.38743 9.8925 4.38743 10C4.38743 10.5523 4.83514 11 5.38743 11H18.6126C18.7201 11 18.8268 10.9827 18.9288 10.9487C19.4527 10.774 19.7359 10.2077 19.5613 9.6838L18 5H6Z" fill="#313D53"/>
</svg>
