<svg width="24" height="24" viewBox="0 0 24 24" fill="none" xmlns="http://www.w3.org/2000/svg">
<path d="M12 2C17.5228 2 22 6.47715 22 12C22 17.5228 17.5228 22 12 22C6.47715 22 2 17.5228 2 12C2 6.47715 6.47715 2 12 2ZM12 4.24805C10.6758 6.63428 10.0303 9.28357 10.0303 12C10.0303 14.7164 10.6759 17.3657 12 19.752C13.3241 17.3657 13.9697 14.7164 13.9697 12C13.9697 9.28357 13.3242 6.63428 12 4.24805ZM9.70996 4.33301C6.29589 5.35125 4.06152 8.50108 4.06152 12C4.06154 15.4989 6.29586 18.6488 9.70996 19.667C8.57363 17.2569 8.02735 14.6547 8.02734 12C8.02734 9.34531 8.57365 6.74312 9.70996 4.33301ZM14.29 4.33301C15.4264 6.74312 15.9727 9.3453 15.9727 12C15.9727 14.6547 15.4264 17.2569 14.29 19.667C17.7041 18.6488 19.9385 15.4989 19.9385 12C19.9385 8.50108 17.7041 5.35126 14.29 4.33301Z" fill="#313D53"/>
</svg>
