<svg width="24" height="24" viewBox="0 0 24 24" fill="none" xmlns="http://www.w3.org/2000/svg">
<path d="M6.45217 11.6876C7.22475 11.6877 7.99034 11.8393 8.70411 12.1343C9.41768 12.4293 10.0661 12.8616 10.6123 13.4064C11.1586 13.9516 11.5926 14.5991 11.8883 15.3113C12.1839 16.0234 12.3359 16.7873 12.336 17.5581C12.3359 18.329 12.183 19.0928 11.8873 19.805C11.5917 20.517 11.1594 21.1648 10.6133 21.7098C10.2252 22.0969 9.5955 22.0965 9.20713 21.7098L6.08996 18.5997V18.8639C6.08996 19.4131 5.64363 19.8583 5.09445 19.8583C4.5465 19.8583 4.10119 19.4141 4.10119 18.8661C4.10119 18.3182 4.54538 17.874 5.09332 17.874H5.36262L2.29109 14.8094C1.90303 14.4219 1.90291 13.7938 2.29109 13.4064C2.83725 12.8616 3.48575 12.4293 4.19926 12.1343C4.91316 11.8393 5.67946 11.6876 6.45217 11.6876ZM21.7088 16.1804C22.097 16.5678 22.0971 17.1959 21.7088 17.5833L18.7257 20.5597C18.3374 20.947 17.7079 20.947 17.3195 20.5597L13.8392 17.0872L18.2285 12.7079L21.7088 16.1804ZM14.4121 5.19903C14.8027 4.88122 15.3785 4.90362 15.7425 5.26685L18.7257 8.24326C19.1138 8.63073 19.1139 9.25883 18.7257 9.64621L13.3634 14.9954C13.3318 14.9106 13.301 14.8253 13.2662 14.7416C12.8956 13.8488 12.3517 13.0376 11.6669 12.3542C10.9822 11.6712 10.1696 11.1292 9.27511 10.7595C9.16931 10.7157 9.06216 10.6741 8.95465 10.6354L14.3364 5.26685L14.4121 5.19903ZM6.45703 2.22261C6.8476 1.90478 7.42335 1.9272 7.78741 2.29043L11.2678 5.76292L6.87848 10.1423L3.39812 6.66979C3.00986 6.28241 3.00999 5.65432 3.39812 5.26685L6.38128 2.29043L6.45703 2.22261Z" fill="#313D53"/>
</svg>
