<svg width="24" height="24" viewBox="0 0 24 24" fill="none" xmlns="http://www.w3.org/2000/svg">
<path d="M9 5H14.4458C14.7905 5 15.111 5.17762 15.2938 5.47L18.75 11H23.1577C23.4339 11 23.6577 11.2239 23.6577 11.5C23.6577 11.5837 23.6367 11.666 23.5967 11.7394L19.6599 18.9568C19.444 18.9853 19.2237 19 19 19C17.3644 19 15.9122 18.2147 15 17.0005C14.0878 18.2147 12.6356 19 11 19C9.3644 19 7.91223 18.2147 7 17.0005C6.08777 18.2147 4.6356 19 3 19C2.81381 19 2.63 18.9898 2.44909 18.97L1.21434 12.1789C1.11555 11.6355 1.47595 11.1149 2.01933 11.0161C2.07835 11.0054 2.13822 11 2.19821 11H3V6C3 5.44772 3.44772 5 4 5H5V2H9V5ZM5 11H16.3915L13.8915 7H5V11ZM3 21C4.53671 21 5.93849 20.4223 7 19.4722C8.06151 20.4223 9.46329 21 11 21C12.5367 21 13.9385 20.4223 15 19.4722C16.0615 20.4223 17.4633 21 19 21H21V23H19C17.5429 23 16.1767 22.6104 15 21.9297C13.8233 22.6104 12.4571 23 11 23C9.54285 23 8.17669 22.6104 7 21.9297C5.82331 22.6104 4.45715 23 3 23H1V21H3Z" fill="#313D53"/>
</svg>
