<svg width="118" height="16" viewBox="0 0 118 16" fill="none" xmlns="http://www.w3.org/2000/svg">
<g clip-path="url(#clip0_48_366)">
<path fill-rule="evenodd" clip-rule="evenodd" d="M0 10.8697C14.3939 8.7909 30.9992 5.29577 42 0C37.4163 5.1831 35.059 10.0282 32.3088 16C31.8503 15.8377 31.3905 15.6791 30.9295 15.5243C34.3658 9.4554 37.3945 4.79091 39.5117 2.47887C36.3302 5.28627 32.6857 9.54586 29.0257 14.908C28.3312 14.6917 27.6341 14.4838 26.9346 14.2843C30.0844 11.2945 33.6411 7.87455 38.7259 2.47887C35.5859 5.03832 30.4645 8.98841 24.6777 13.4517L24.6771 13.4521L24.4631 13.6172C23.5899 13.3948 22.7132 13.1854 21.8332 12.9892C26.6361 10.2504 31.6833 7.06084 38.2021 2.25351C34.4373 4.60922 27.0948 8.5521 19.06 12.4167C17.4665 12.1139 15.8633 11.854 14.2515 11.6376C23.9941 8.74243 33.2571 4.81023 37.9402 2.02817C34.409 3.8721 22.1729 8.09091 9.9736 11.1675C6.67527 10.8851 3.34695 10.7841 0 10.8697ZM51.6455 2H59.7928C60.9612 2 61.8612 3.05286 61.6559 4.21571H51.456L51.0613 6.44714H59.0664C60.2033 6.44714 61.0717 7.46857 60.8822 8.6L60.3612 11.4914C60.2033 12.3714 59.4454 13 58.5454 13H49.8928C48.7086 13 47.8244 11.9314 48.0297 10.7686H58.277L58.6401 8.67857L51.3297 8.66286C49.7981 8.66286 48.6455 7.29571 48.9139 5.80286L49.2297 4.01143C49.435 2.84857 50.4455 2 51.6455 2ZM63.0315 12.9843L64.9736 2H67.2315L65.2736 12.9843H63.0315ZM79.5267 2H71.6478C70.3373 2 69.2163 2.92714 68.9952 4.21571H74.0162L72.4689 12.9843H74.711L76.2741 4.21571H81.3898C81.5951 3.05286 80.6951 2 79.5267 2ZM86.6158 2H94.7631C95.9315 2 96.8315 3.05286 96.6262 4.21571H86.4263L86.0316 6.44714H94.0367C95.1736 6.44714 96.042 7.46857 95.8525 8.6L95.3315 11.4914C95.1736 12.3714 94.4157 13 93.5157 13H84.8631C83.6789 13 82.7947 11.9314 83 10.7686H93.2473L93.6104 8.67857L86.3 8.66286C84.7684 8.66286 83.6158 7.29571 83.8842 5.80286L84.2 4.01143C84.4053 2.84857 85.4158 2 86.6158 2ZM99.9439 2L98.0018 12.9843H100.244L102.202 2H99.9439ZM114.418 2.45571C114.794 2.10072 115.262 2 115.76 2C116.818 2 117.607 2.94286 117.418 3.96429L115.823 12.9843H113.581L114.955 5.06429L110.408 9.40143L107.076 4.97L105.671 12.9843H103.429L105.134 3.38286C105.276 2.58143 105.971 2 106.792 2C107.329 2 107.818 2.23571 108.134 2.66L110.692 6.03857L114.418 2.45571Z" fill="#556579"/>
</g>
<defs>
<clipPath id="clip0_48_366">
<rect width="117.446" height="16" fill="white"/>
</clipPath>
</defs>
</svg>
