<svg width="174" height="16" viewBox="0 0 174 16" fill="none" xmlns="http://www.w3.org/2000/svg">
<g clip-path="url(#clip0_48_368)">
<path fill-rule="evenodd" clip-rule="evenodd" d="M0 10.8697C14.3939 8.7909 30.9992 5.29577 42 0C37.4163 5.1831 35.059 10.0282 32.3088 16C31.8503 15.8377 31.3905 15.6791 30.9295 15.5243C34.3658 9.4554 37.3945 4.79091 39.5117 2.47887C36.3302 5.28627 32.6857 9.54586 29.0257 14.908C28.3312 14.6917 27.6341 14.4838 26.9346 14.2843C30.0844 11.2945 33.6411 7.87455 38.7259 2.47887C35.5859 5.03832 30.4645 8.98841 24.6777 13.4517L24.6771 13.4521L24.4631 13.6172C23.5899 13.3948 22.7132 13.1854 21.8332 12.9892C26.6361 10.2504 31.6833 7.06084 38.2021 2.25351C34.4373 4.60922 27.0948 8.5521 19.06 12.4167C17.4665 12.1139 15.8633 11.854 14.2515 11.6376C23.9941 8.74243 33.2571 4.81023 37.9402 2.02817C34.409 3.8721 22.1729 8.09091 9.9736 11.1675C6.67527 10.8851 3.34695 10.7841 0 10.8697ZM97.851 2H108.818C110.057 2 110.991 3.12981 110.77 4.34522L110.193 7.61484C110.04 8.57347 109.208 9.27532 108.241 9.27532H105.694L109.225 13.9829H106.186L101.195 7.27247C101.06 7.10128 101.178 6.84451 101.399 6.84451H107.273C107.595 6.84451 107.867 6.62197 107.935 6.29672L108.122 5.20114C108.19 4.80742 107.884 4.43081 107.477 4.43081H99.8372L98.1735 13.9829H95.7459L97.851 2ZM50.0881 2.03424H61.0549C62.2942 2.03424 63.2279 3.14693 63.0072 4.37946L62.5488 6.98146C62.425 7.64161 61.8489 8.07703 61.1907 8.07703C61.8019 8.26534 62.2263 8.89872 62.1074 9.58345L61.6151 12.3566C61.4454 13.3153 60.6135 14 59.6628 14H48L50.0881 2.03424ZM60.257 6.33096L60.4607 5.23538C60.5286 4.82454 60.2061 4.44793 59.7986 4.44793H52.0913L50.8351 11.5863H58.814C59.1366 11.5863 59.4082 11.3638 59.4591 11.0385L59.6289 10.0799C59.7138 9.66904 59.3912 9.29244 58.9838 9.29244H53.6701L54.0946 6.87874H59.6119C59.9344 6.87874 60.2061 6.63909 60.257 6.33096ZM66.7661 2.03424H77.7329C78.9722 2.03424 79.9059 3.14693 79.6852 4.37946L79.2269 6.98146C79.103 7.64162 78.527 8.07703 77.8688 8.07703C78.4799 8.26534 78.9043 8.89872 78.7855 9.58345L78.2932 12.3566C78.1234 13.3153 77.2915 14 76.3409 14H64.678L66.7661 2.03424ZM76.935 6.33096L77.1388 5.23538C77.2067 4.82454 76.8841 4.44793 76.4767 4.44793H68.7694L67.5131 11.5863H75.4921C75.8146 11.5863 76.0862 11.3638 76.1372 11.0385L76.3069 10.0799C76.3918 9.66904 76.0692 9.29244 75.6618 9.29244H70.3482L70.7726 6.87874H76.2899C76.6125 6.87874 76.8841 6.63909 76.935 6.33096ZM85.1104 9.30956H91.0861L91.5105 6.89586H85.5518L85.1104 9.30956ZM82.6318 2.03424L80.5437 14H82.9544L84.6351 4.44793H95.5509L95.9753 2.03424H82.6318ZM122.025 3.35235C121.754 2.56491 121.007 2.03424 120.175 2.03424C119.53 2.03424 118.935 2.34237 118.562 2.87304L110.787 14H113.214L119.954 4.3281L121.278 8.07703H118.732L117.136 10.3709H122.076L123.366 14H125.777L122.025 3.35235ZM140.499 2.03424H140.686C141.823 2.03424 142.672 3.06134 142.468 4.17404L140.754 14H138.343L139.82 5.37233L134.931 10.097L131.349 5.26961L129.838 14H127.427L129.261 3.54066C129.413 2.66762 130.16 2.03424 131.043 2.03424C131.62 2.03424 132.147 2.29101 132.486 2.75321L135.236 6.43367L139.243 2.53067C139.582 2.20542 140.024 2.03424 140.499 2.03424ZM158.758 2.03424H145.431L143.343 14H156.67L157.094 11.5863H146.178L147.435 4.44793H158.334L158.758 2.03424ZM152.748 9.29244L153.173 6.87874H148.351L147.927 9.29244H152.748ZM161.048 2H172.015C173.255 2 174.188 3.12981 173.968 4.34522L173.39 7.61484C173.238 8.57347 172.406 9.27532 171.438 9.27532H168.892L172.423 13.9829H169.384L164.393 7.27247C164.257 7.10128 164.376 6.84451 164.597 6.84451H170.47C170.793 6.84451 171.065 6.62197 171.133 6.29672L171.319 5.20114C171.387 4.80742 171.082 4.43081 170.674 4.43081H163.035L161.371 13.9829H158.943L161.048 2Z" fill="#556579"/>
</g>
<defs>
<clipPath id="clip0_48_368">
<rect width="174" height="16" fill="white"/>
</clipPath>
</defs>
</svg>
