<svg width="108" height="16" viewBox="0 0 108 16" fill="none" xmlns="http://www.w3.org/2000/svg">
<g clip-path="url(#clip0_48_367)">
<path fill-rule="evenodd" clip-rule="evenodd" d="M0 10.8697C14.3939 8.7909 30.9992 5.29577 42 0C37.4163 5.1831 35.059 10.0282 32.3088 16C31.8503 15.8377 31.3905 15.6791 30.9295 15.5243C34.3658 9.4554 37.3945 4.79091 39.5117 2.47887C36.3302 5.28627 32.6857 9.54586 29.0257 14.908C28.3312 14.6917 27.6341 14.4838 26.9346 14.2843C30.0844 11.2945 33.6411 7.87455 38.7259 2.47887C35.5859 5.03832 30.4645 8.98841 24.6777 13.4517L24.6771 13.4521L24.4631 13.6172C23.5899 13.3948 22.7132 13.1854 21.8332 12.9892C26.6361 10.2504 31.6833 7.06084 38.2021 2.25351C34.4373 4.60922 27.0948 8.5521 19.06 12.4167C17.4665 12.1139 15.8633 11.854 14.2515 11.6376C23.9941 8.74243 33.2571 4.81023 37.9402 2.02817C34.409 3.8721 22.1729 8.09091 9.9736 11.1675C6.67527 10.8851 3.34695 10.7841 0 10.8697ZM59.3033 2.45637C59.6281 2.15737 60.0503 2 60.5051 2C61.5842 2 62.6152 2.7795 62.389 3.9671L60.7487 13H58.4426L59.8555 5.06867L55.1782 9.41202L51.7515 4.97425L50.3061 13H48L49.754 3.38484C49.9001 2.58226 50.6147 2 51.4592 2C52.0114 2 52.5148 2.23605 52.8396 2.66094L55.4706 6.04435L59.3033 2.45637ZM68.3395 2H75.5827C76.8008 2 77.7265 3.05436 77.5153 4.21888H68.6643C67.7386 4.21888 66.9591 4.86409 66.7967 5.74535L66.0009 10.0572C65.936 10.4349 66.2445 10.7811 66.6343 10.7811H76.1999L76.0699 11.4421C75.9075 12.3391 75.0955 13 74.1373 13H65.4812C64.2632 13 63.3375 11.9456 63.5324 10.7811H63.5649L64.6042 5.0372C64.929 3.27468 66.5044 2 68.3395 2ZM90.2405 2H79.8305L77.8329 13H87.3822C89.2174 13 90.7927 11.7253 91.1175 9.9628L92.1731 4.21888C92.3843 3.05436 91.4586 2 90.2405 2ZM89.7533 4.94278L88.9738 9.25465C88.8114 10.1359 88.0156 10.7811 87.1061 10.7811H80.545L81.7468 4.21888H89.1362C89.526 4.21888 89.8183 4.56509 89.7533 4.94278ZM104.882 6.45351L105.694 2H108L106.002 13H103.68L104.476 8.67239H98.5644C96.1933 8.67239 94.4068 6.61087 94.8128 4.36052L95.2513 2H97.5737L97.1514 4.29757C96.9403 5.41488 97.8335 6.45351 99.0191 6.45351H104.882Z" fill="#556579"/>
</g>
<defs>
<clipPath id="clip0_48_367">
<rect width="108" height="16" fill="white"/>
</clipPath>
</defs>
</svg>
