<svg width="178" height="16" viewBox="0 0 178 16" fill="none" xmlns="http://www.w3.org/2000/svg">
<g clip-path="url(#clip0_48_365)">
<path fill-rule="evenodd" clip-rule="evenodd" d="M0 10.8697C14.3939 8.7909 30.9992 5.29577 42 0C37.4163 5.1831 35.059 10.0282 32.3088 16C31.8503 15.8377 31.3905 15.6791 30.9295 15.5243C34.3658 9.4554 37.3945 4.79091 39.5117 2.47887C36.3302 5.28627 32.6857 9.54586 29.0257 14.908C28.3312 14.6917 27.6341 14.4838 26.9346 14.2843C30.0844 11.2945 33.6411 7.87455 38.7259 2.47887C35.5859 5.03832 30.4645 8.98841 24.6777 13.4517L24.4631 13.6172C23.5899 13.3948 22.7132 13.1854 21.8332 12.9892C26.6361 10.2504 31.6833 7.06084 38.2021 2.25351C34.4373 4.60922 27.0948 8.5521 19.06 12.4167C17.4665 12.1139 15.8633 11.854 14.2515 11.6376C23.9941 8.74243 33.2571 4.81023 37.9402 2.02817C34.409 3.8721 22.1729 8.09091 9.9736 11.1675C6.67527 10.8851 3.34695 10.7841 0 10.8697ZM165.887 2H176.144C177.303 2 178.176 3.03419 177.97 4.14672L177.43 7.1396C177.287 8.01709 176.509 8.65954 175.604 8.65954H173.222L176.525 12.9687H173.683L169.015 6.82621C168.888 6.66952 168.999 6.43447 169.205 6.43447H174.699C175.001 6.43447 175.255 6.23077 175.318 5.93305L175.493 4.9302C175.556 4.5698 175.27 4.22507 174.889 4.22507H167.744L166.188 12.9687H163.918L165.887 2ZM59.8588 2.03134H51.6659C50.4592 2.03134 49.443 2.87749 49.2366 4.03704L48.919 5.82336C48.6491 7.31197 49.8082 8.67521 51.3483 8.67521L58.6998 8.69088L58.3346 10.7749H48.0299C47.8235 11.9345 48.7126 13 49.9035 13H58.6045C59.5095 13 60.2717 12.3732 60.4304 11.4957L60.9544 8.61254C61.1449 7.48433 60.2717 6.46581 59.1285 6.46581H51.0784L51.4754 4.24074H61.7324C61.9388 3.0812 61.0338 2.03134 59.8588 2.03134ZM74.5298 2.03134H67.4483C65.6541 2.03134 64.114 3.30057 63.7964 5.05556L62.7802 10.7749H62.7485C62.5579 11.9345 63.463 12.9843 64.6538 12.9843H73.1167C74.0535 12.9843 74.8474 12.3262 75.0061 11.433L75.1332 10.7749H65.7811C65.4001 10.7749 65.0984 10.4302 65.1619 10.0541L65.9399 5.76068C66.0987 4.88319 66.8608 4.24074 67.7659 4.24074H76.4193C76.6257 3.0812 75.7206 2.03134 74.5298 2.03134ZM88.734 6.46581L89.5279 2.03134H91.7825L89.8296 12.9843H87.5591L88.3371 8.67521H80.3981L79.6201 12.9843H77.3655L79.3185 2.03134H81.589L80.7951 6.46581H88.734ZM107.474 2.03134H95.0102L93.0572 12.9843H105.521L105.918 10.7749H95.7088L96.8838 4.24074H107.077L107.474 2.03134ZM101.854 8.67521L102.25 6.46581H97.7412L97.3442 8.67521H101.854ZM109.617 2.03134H119.794C120.985 2.03134 121.89 3.0812 121.684 4.24074L120.652 9.96011C120.334 11.7151 118.794 12.9843 117 12.9843H107.664L109.617 2.03134ZM118.556 9.25499L119.318 4.96154C119.381 4.58547 119.096 4.24074 118.715 4.24074H111.49L110.315 10.7749H116.73C117.619 10.7749 118.397 10.1325 118.556 9.25499ZM134.583 2.03134L133.281 9.27066C133.122 10.1325 132.36 10.7749 131.455 10.7749H127.279C126.136 10.7749 125.262 9.75641 125.453 8.62821L126.644 2.03134H124.373L123.182 8.70655C122.785 10.9473 124.532 13 126.834 13H131.772C133.566 13 135.107 11.7151 135.424 9.97578L136.837 2.03134H134.583ZM139.915 10.7749H145.568C146.759 10.7749 147.664 11.8405 147.457 12.9843L137.264 13L139.217 2.03134H141.487L139.915 10.7749ZM158.896 3.23789C158.642 2.51709 157.943 2.03134 157.165 2.03134C156.562 2.03134 156.006 2.31339 155.657 2.79915L148.385 12.9843H150.655L156.959 4.13105L158.197 7.56268H155.816L154.323 9.66239H158.944L160.15 12.9843H162.405L158.896 3.23789Z" fill="#556579"/>
</g>
<defs>
<clipPath id="clip0_48_365">
<rect width="178" height="16" fill="white"/>
</clipPath>
</defs>
</svg>
