<svg width="97" height="16" viewBox="0 0 97 16" fill="none" xmlns="http://www.w3.org/2000/svg">
<g clip-path="url(#clip0_49_388)">
<path fill-rule="evenodd" clip-rule="evenodd" d="M0 10.8697C14.3939 8.7909 30.9992 5.29577 42 0C37.4163 5.1831 35.059 10.0282 32.3088 16C31.8503 15.8377 31.3905 15.6791 30.9295 15.5243C34.3658 9.4554 37.3945 4.79091 39.5117 2.47887C36.3302 5.28627 32.6857 9.54586 29.0257 14.908C28.3312 14.6917 27.6341 14.4838 26.9346 14.2843C30.0844 11.2945 33.6411 7.87455 38.7259 2.47887C35.5859 5.03832 30.4645 8.98841 24.6777 13.4517L24.6771 13.4521L24.4631 13.6172C23.5899 13.3948 22.7132 13.1854 21.8332 12.9892C26.6361 10.2504 31.6833 7.06084 38.2021 2.25351C34.4373 4.60922 27.0948 8.5521 19.06 12.4167C17.4665 12.1139 15.8633 11.854 14.2515 11.6376C23.9941 8.74243 33.2571 4.81023 37.9402 2.02817C34.409 3.8721 22.1729 8.09091 9.9736 11.1675C6.67527 10.8851 3.34695 10.7841 0 10.8697ZM61.3608 2H50.1454L48 13.9829H50.4768L52.2036 4.41714H59.7561C60.1747 4.41714 60.4887 4.79429 60.4189 5.20571L60.2271 6.28571C60.1573 6.61143 59.8782 6.85143 59.5468 6.85143H54.2269L53.7908 9.26857H60.7852C61.7969 9.26857 62.669 8.56571 62.8434 7.57143L63.419 4.4C63.6457 3.14857 62.6515 2 61.3608 2ZM77.9855 2L77.1134 6.85143H68.3922L69.2644 2H66.7701L64.6247 13.9829H67.1015L67.9562 9.26857H76.6773L75.8227 13.9829H78.3169L79.5902 6.85143L80.4623 2H77.9855ZM85.9092 2H94.9094C96.2002 2 97.1944 3.14857 96.9676 4.41714H85.6999L85.2639 6.85143H94.1071C95.3629 6.85143 96.3223 7.96571 96.113 9.2L95.5374 12.3543C95.3629 13.3143 94.5257 14 93.5315 14H83.9731C82.6649 14 81.6882 12.8343 81.9149 11.5657H93.235L93.6362 9.28571L85.5604 9.26857C83.8685 9.26857 82.5952 7.77714 82.8917 6.14857L83.2405 4.19429C83.4673 2.92571 84.5836 2 85.9092 2Z" fill="#556579"/>
</g>
<defs>
<clipPath id="clip0_49_388">
<rect width="97" height="16" fill="white"/>
</clipPath>
</defs>
</svg>
