<svg width="127" height="16" viewBox="0 0 127 16" fill="none" xmlns="http://www.w3.org/2000/svg">
<g clip-path="url(#clip0_48_313)">
<path fill-rule="evenodd" clip-rule="evenodd" d="M0 10.8697C14.3939 8.7909 30.9992 5.29577 42 0C37.4163 5.1831 35.059 10.0282 32.3088 16C31.8503 15.8377 31.3905 15.6791 30.9295 15.5243C34.3658 9.4554 37.3945 4.79091 39.5117 2.47887C36.3302 5.28627 32.6857 9.54586 29.0257 14.908C28.3312 14.6917 27.6341 14.4838 26.9346 14.2843C30.0844 11.2945 33.6411 7.87455 38.7259 2.47887C35.5859 5.03832 30.4645 8.98841 24.6777 13.4517L24.4631 13.6172C23.5899 13.3948 22.7132 13.1854 21.8332 12.9892C26.6361 10.2504 31.6833 7.06084 38.2021 2.25351C34.4373 4.60922 27.0948 8.5521 19.06 12.4167C17.4665 12.1139 15.8633 11.854 14.2515 11.6376C23.9941 8.74243 33.2571 4.81023 37.9402 2.02817C34.409 3.8721 22.1729 8.09091 9.9736 11.1675C6.67527 10.8851 3.34695 10.7841 0 10.8697ZM50.1158 2H52.5756L50.4426 12.9843H48L50.1158 2ZM67.0884 2C68.3785 2 69.359 3.05286 69.1354 4.21571L68.0173 9.95143C67.6733 11.7114 66.0048 12.9843 64.061 12.9843H53.9466L56.0623 2H67.0884ZM66.5724 4.93857C66.6412 4.56143 66.3316 4.21571 65.9187 4.21571H58.0921L56.8192 10.7686H63.7686C64.7318 10.7686 65.5747 10.1243 65.7467 9.24429L66.5724 4.93857ZM85.5521 2H83.1095L81.699 9.26C81.527 10.1243 80.7013 10.7686 79.7208 10.7686H75.1969C73.9584 10.7686 73.0123 9.74714 73.2187 8.61572L74.5088 2H72.049L70.7589 8.69429C70.3289 10.9414 72.221 13 74.7152 13H80.0649C82.0086 13 83.6772 11.7114 84.0212 9.96714L85.5521 2ZM108.144 2H110.586L108.78 11.3186C108.591 12.2929 107.679 12.9843 106.613 12.9843C105.908 12.9843 105.254 12.6857 104.841 12.1829L98.941 5.01714L97.4101 12.9843H94.9503L96.808 3.38286C96.9628 2.58143 97.7197 2 98.6142 2C99.199 2 99.7322 2.23571 100.076 2.66L106.51 10.4857L108.144 2ZM126.968 4.21571C127.192 3.05286 126.211 2 124.921 2H117.249C115.306 2 113.637 3.27286 113.293 5.03286L112.158 10.7686C111.951 11.9314 112.932 12.9843 114.222 12.9843H123.528C124.543 12.9843 125.403 12.3243 125.575 11.4286L126.538 6.44714H120.174L119.709 8.66286H123.648L123.339 10.2657C123.287 10.5486 123.012 10.7686 122.685 10.7686H115.443C115.03 10.7686 114.704 10.4229 114.772 10.0457L115.615 5.74C115.787 4.86 116.613 4.21571 117.593 4.21571H126.968Z" fill="#556579"/>
</g>
<defs>
<clipPath id="clip0_48_313">
<rect width="127" height="16" fill="white"/>
</clipPath>
</defs>
</svg>
