<svg width="122" height="16" viewBox="0 0 122 16" fill="none" xmlns="http://www.w3.org/2000/svg">
<g clip-path="url(#clip0_48_303)">
<path fill-rule="evenodd" clip-rule="evenodd" d="M0 10.8697C14.3939 8.7909 30.9992 5.29577 42 0C37.4163 5.1831 35.059 10.0282 32.3088 16C31.8503 15.8377 31.3905 15.6791 30.9295 15.5243C34.3658 9.4554 37.3945 4.79091 39.5117 2.47887C36.3302 5.28627 32.6857 9.54586 29.0257 14.908C28.3312 14.6917 27.6341 14.4838 26.9346 14.2843C30.0844 11.2945 33.6411 7.87455 38.7259 2.47887C35.5859 5.03832 30.4645 8.98841 24.6777 13.4517L24.4631 13.6172C23.5899 13.3948 22.7132 13.1854 21.8332 12.9892C26.6361 10.2504 31.6833 7.06084 38.2021 2.25351C34.4373 4.60922 27.0948 8.5521 19.06 12.4167C17.4665 12.1139 15.8633 11.854 14.2515 11.6376C23.9941 8.74243 33.2571 4.81023 37.9402 2.02817C34.409 3.8721 22.1729 8.09091 9.9736 11.1675C6.67527 10.8851 3.34695 10.7841 0 10.8697ZM66.3419 2H76.7656C76.9885 2 77.0841 2.26676 76.9249 2.42368L65.7961 13H62.5L72 4H64C64.2229 2.71327 65.0203 2 66.3419 2ZM58.1838 9.26534L59.4895 2.01569H61.7506L60.3335 9.97147C60.015 11.7133 58.4704 13 56.6711 13H51.719C49.4101 13 47.6585 10.9444 48.0566 8.70043L49.2509 2.01569H51.5279L50.3336 8.62197C50.1426 9.75178 51.0183 10.7718 52.1648 10.7718H56.3526C57.2603 10.7718 58.0246 10.1284 58.1838 9.26534ZM91.222 5.37375L91.429 4.21255C91.6467 3.04226 90.6704 2 89.5182 2H81.5884C80.2668 2 79.1521 2.92582 78.9292 4.19686L78.7222 5.2796C78.5311 6.39372 79.391 7.41369 80.5534 7.42939H80.5375C79.2636 7.46077 78.2391 8.38659 78.0162 9.64194L77.8092 10.7874C77.5917 11.9564 78.5532 13 79.704 13H87.6497C88.9554 13 90.086 12.0742 90.3089 10.8031L90.5 9.73609C90.707 8.60628 89.773 7.57061 88.6265 7.57061V7.55492C89.9163 7.53923 90.9991 6.61341 91.222 5.37375ZM88.2867 9.40656L88.207 9.92439C88.1115 10.3795 87.7453 10.7247 87.2676 10.7874H80.8187C80.4365 10.7874 80.134 10.4422 80.1976 10.0656L80.2773 9.61056C80.3728 9.07703 80.7922 8.66904 81.3336 8.66904H87.6233C88.0055 8.66904 88.3663 9.02996 88.2867 9.40656ZM89.0246 4.95007L88.929 5.53067C88.8335 6.06419 88.3558 6.45649 87.8144 6.45649H81.5247C81.1425 6.45649 80.8719 5.98573 80.9355 5.60913L81.0311 5.0913C81.1107 4.63623 81.4929 4.27532 81.9546 4.22825H88.4195C88.8016 4.22825 89.1042 4.57347 89.0246 4.95007ZM100.147 8.68474H96.8668L99.1916 6.45649H102.456L100.147 8.68474ZM104.494 2.01569H104.51C105.704 2.01569 106.596 3.06705 106.389 4.21255V4.22825L105.354 9.97147C105.051 11.7133 103.507 12.9843 101.692 12.9843H94.5897C93.3955 12.9843 92.4879 11.933 92.679 10.7718H92.7108L93.7299 5.04422C94.0484 3.28673 95.5929 2.01569 97.3922 2.01569H104.494ZM103.22 9.26534L103.984 4.95007C104.048 4.57347 103.762 4.22825 103.379 4.22825H97.7107C96.8031 4.22825 96.0388 4.87161 95.8795 5.75036L95.0993 10.0499C95.0356 10.4265 95.3381 10.7718 95.7203 10.7718H101.389C102.281 10.7718 103.061 10.1284 103.22 9.26534ZM112.448 8.68474H115.728L118.037 6.45649H114.773L112.448 8.68474ZM120.091 2.01569H120.075H112.973C111.174 2.01569 109.63 3.28673 109.311 5.04422L108.292 10.7718H108.26C108.069 11.933 108.977 12.9843 110.171 12.9843H117.273C119.088 12.9843 120.632 11.7133 120.935 9.97147L121.97 4.22825V4.21255C122.177 3.06705 121.285 2.01569 120.091 2.01569ZM119.566 4.95007L118.801 9.26534C118.642 10.1284 117.862 10.7718 116.97 10.7718H111.301C110.919 10.7718 110.617 10.4265 110.68 10.0499L111.461 5.75036C111.62 4.87161 112.384 4.22825 113.292 4.22825H118.961C119.343 4.22825 119.629 4.57347 119.566 4.95007Z" fill="#556579"/>
</g>
<defs>
<clipPath id="clip0_48_303">
<rect width="122" height="16" fill="white"/>
</clipPath>
</defs>
</svg>
