<svg width="110" height="16" viewBox="0 0 110 16" fill="none" xmlns="http://www.w3.org/2000/svg">
<g clip-path="url(#clip0_48_354)">
<path d="M42 0C37.4163 5.1831 35.0588 10.0282 32.3086 16C31.8502 15.8378 31.3905 15.6792 30.9297 15.5244C34.366 9.45554 37.3945 4.79055 39.5117 2.47852C36.3302 5.28591 32.6854 9.54602 29.0254 14.9082C28.331 14.6919 27.634 14.4837 26.9346 14.2842C30.0844 11.2944 38.7256 2.47852 38.7256 2.47852C38.7034 2.49601 30.4567 8.99489 24.6777 13.4521L24.4629 13.6172C23.5898 13.3948 22.7129 13.1854 21.833 12.9893C26.6359 10.2504 31.6835 7.06117 38.2021 2.25391C34.4373 4.60962 27.0944 8.55241 19.0596 12.417C17.4664 12.1142 15.8634 11.8541 14.252 11.6377C23.9944 8.74253 33.2574 4.81034 37.9404 2.02832C34.4093 3.87225 22.1729 8.09133 9.97363 11.168C6.67529 10.8855 3.34695 10.7844 0 10.8701C14.3939 8.79127 30.9992 5.29577 42 0ZM85.5146 9.01465C85.3284 10.0431 86.1829 10.9716 87.3018 10.9717H91.3896C92.2755 10.9716 93.0213 10.3853 93.1768 9.59961L94.4512 3H96.6582L95.2754 10.2432C94.9645 11.8288 93.4564 13 91.7002 13H86.8662C84.6129 12.9997 82.9036 11.1286 83.292 9.08594L84.458 3H86.6797L85.5146 9.01465ZM57.4961 11.4717C57.325 12.3573 56.5006 12.9854 55.5371 12.9854C54.9001 12.9852 54.3094 12.7139 53.9365 12.2568L48.6055 5.74316L47.2227 12.9854H45L46.6787 4.25684C46.8187 3.52843 47.5025 3 48.3105 3C48.8389 3.00002 49.321 3.21398 49.6318 3.59961L55.4443 10.7139L56.9209 3H59.1279L57.4961 11.4717ZM72.0801 3C73.2456 3.00013 74.1317 3.95758 73.9297 5.01465H65.459C64.5731 5.01465 63.8273 5.60039 63.6719 6.40039L62.9102 10.3145C62.8481 10.6573 63.1436 10.9717 63.5166 10.9717H70.0596C70.3547 10.9716 70.6036 10.7716 70.6504 10.5146L70.9297 9.05762H67.3701L67.79 7.04297H73.541L72.6709 11.5713C72.5155 12.3855 71.7381 12.9852 70.8213 12.9854H62.4131C61.2475 12.9854 60.3615 12.0287 60.5479 10.9717H60.5791L61.5732 5.75684C61.8842 4.15698 63.3923 3 65.1484 3H72.0801ZM108.137 3C109.287 3 110.173 3.95751 109.971 5.01465H104.936L103.396 12.9854H101.189L102.713 5.01465H97.7705C97.9881 3.84322 99.0918 3 100.382 3H108.137Z" fill="#556579"/>
</g>
<defs>
<clipPath id="clip0_48_354">
<rect width="110" height="16" fill="white"/>
</clipPath>
</defs>
</svg>
