<svg width="156" height="20" viewBox="0 0 156 20" fill="none" xmlns="http://www.w3.org/2000/svg">
<g clip-path="url(#clip0_49_386)">
<path fill-rule="evenodd" clip-rule="evenodd" d="M38.7115 7.65162C38.6306 7.54922 38.5466 7.44917 38.4594 7.35159C34.1817 9.94705 28.537 13.1781 21.8824 16.5217C22.9311 16.7304 23.9892 16.9582 25.054 17.2063L38.7115 7.65162ZM28.053 17.9558L39.246 8.44483C39.3299 8.59247 39.4077 8.74356 39.4792 8.89784C36.8218 11.5709 33.7087 14.8729 30.4739 18.6379C29.6653 18.3981 28.858 18.1709 28.053 17.9558ZM32.756 19.3479C34.7205 16.1905 37.0138 12.9348 39.7595 9.62064C39.8753 9.9876 39.9566 10.3684 40 10.7599C38.3148 13.374 36.4978 16.4778 34.6797 20C34.0386 19.7742 33.3972 19.5569 32.756 19.3479ZM37.9746 6.86284C30.3907 10.7018 23.2743 13.4569 16.6994 15.6263C15.0897 15.3895 13.5151 15.1956 11.9865 15.0393C22.6042 12.2006 31.3784 9.08048 37.5549 6.51185C37.7 6.62347 37.84 6.74058 37.9746 6.86284ZM37.149 6.22255C36.0369 5.48965 34.6788 5.05943 33.2123 5.05943C32.3645 5.05943 31.5511 5.20918 30.8064 5.47659C29.741 3.69028 27.7017 2.48158 25.3646 2.48158C24.9407 2.48158 24.5168 2.52437 24.1159 2.59924C22.6838 1.01616 20.5414 0 18.147 0C14.5612 0 11.5481 2.26765 10.6431 5.34823C9.93275 5.16639 9.18808 5.05943 8.40904 5.05943C3.76918 5.05943 0 8.56787 0 12.9106C0 13.4539 0.0592793 13.9844 0.172121 14.4968C12.199 14.3308 25.9595 10.2136 37.149 6.22255Z" fill="#556579"/>
<path fill-rule="evenodd" clip-rule="evenodd" d="M124.365 0.5H124.381C125.576 0.5 126.468 1.56705 126.261 2.71255V2.72825L125.225 8.45578C124.923 10.2133 123.377 11.4843 121.56 11.4843H114.454C113.259 11.4843 112.35 10.433 112.542 9.27175H112.573L113.593 3.52853C113.912 1.78673 115.458 0.5 117.258 0.5H124.365ZM123.09 7.74964L123.855 3.43438C123.919 3.07347 123.632 2.72825 123.249 2.72825H117.577C116.669 2.72825 115.904 3.35592 115.744 4.23466L114.964 8.54993C114.9 8.92653 115.203 9.27175 115.585 9.27175H121.258C122.15 9.27175 122.931 8.62839 123.09 7.74964ZM49.679 0.515692H57.9012C59.0803 0.515692 59.9886 1.56705 59.7814 2.72825H49.4878L49.0894 4.95649H57.1682C58.3155 4.95649 59.1919 5.97646 59.0006 7.10628L58.4748 9.99358C58.3155 10.8723 57.5506 11.5 56.6423 11.5H47.9102C46.7152 11.5 45.8228 10.433 46.03 9.27175H56.3715L56.738 7.18474L49.3603 7.16904C47.8146 7.16904 46.6514 5.80385 46.9223 4.31312L47.241 2.52425C47.4481 1.36305 48.4679 0.515692 49.679 0.515692ZM68.1955 0.515692C68.9763 0.515692 69.6774 1.00214 69.9323 1.72397L73.4538 11.4843H71.1911L69.9801 8.15763H65.3432L66.841 6.05492H69.2312L67.9883 2.6184L61.6623 11.4843H59.3837L66.6817 1.28459C67.0322 0.798145 67.59 0.515692 68.1955 0.515692ZM84.7879 0.515692H76.8366C75.514 0.515692 74.3827 1.44151 74.1596 2.72825H79.2267L77.6652 11.4843H79.9279L81.5054 2.72825H86.6681C86.8753 1.56705 85.967 0.515692 84.7879 0.515692ZM91.6447 0.515692H98.7515C99.9465 0.515692 100.855 1.56705 100.648 2.72825H91.9634C91.0551 2.72825 90.2902 3.37161 90.1309 4.25036L89.3501 8.54993C89.2864 8.92653 89.5891 9.27175 89.9716 9.27175H99.357L99.2295 9.93081C99.0701 10.8253 98.2734 11.4843 97.3333 11.4843H88.8402C87.6451 11.4843 86.7369 10.433 86.9281 9.27175H86.9599L87.9797 3.54422C88.2984 1.78673 89.8441 0.515692 91.6447 0.515692ZM109.293 9.27175H103.62L105.198 0.515692H102.919L100.959 11.5L111.189 11.4843C111.396 10.3388 110.488 9.27175 109.293 9.27175ZM139.209 0.515692L137.903 7.76534C137.743 8.62839 136.979 9.27175 136.07 9.27175H131.88C130.732 9.27175 129.856 8.25178 130.047 7.12197L131.242 0.515692H128.963L127.768 7.20043C127.37 9.44437 129.123 11.5 131.433 11.5H136.389C138.19 11.5 139.735 10.2133 140.054 8.47147L141.472 0.515692H139.209ZM143.86 0.515692H154.074C155.269 0.515692 156.178 1.56705 155.97 2.72825L154.935 8.45578C154.616 10.2133 153.07 11.4843 151.27 11.4843H141.9L143.86 0.515692ZM152.831 7.74964L153.596 3.45007C153.66 3.07347 153.373 2.72825 152.991 2.72825H145.741L144.561 9.27175H150.999C151.891 9.27175 152.672 8.62839 152.831 7.74964Z" fill="#556579"/>
<path d="M64.8161 19.4465H63.9842V17.7166H61.8352V19.4465H61V15.5535H61.8352V17.1738H63.9842V15.5535H64.8161V19.4465Z" fill="#556579"/>
<path d="M69.2324 18.5401H67.3706L66.981 19.4465H66.1128L67.9284 15.5535H68.6778L70.4967 19.4465H69.6252L69.2324 18.5401ZM67.6049 17.9947H68.998L68.3015 16.3797L67.6049 17.9947Z" fill="#556579"/>
<path d="M73.4869 17.9465H72.556V19.4465H71.7208V15.5535H73.411C73.9656 15.5535 74.3936 15.6542 74.6951 15.8556C74.9966 16.057 75.1474 16.3485 75.1474 16.7299C75.1474 16.9902 75.0693 17.2086 74.913 17.385C74.759 17.5597 74.5433 17.6943 74.266 17.7888L75.3455 19.4118V19.4465H74.4509L73.4869 17.9465ZM72.556 17.4037H73.4143C73.696 17.4037 73.9161 17.3467 74.0745 17.2326C74.233 17.1168 74.3122 16.959 74.3122 16.7594C74.3122 16.5508 74.2385 16.3895 74.091 16.2754C73.9458 16.1613 73.7279 16.1025 73.4374 16.0989H72.556V17.4037Z" fill="#556579"/>
<path d="M76.6157 19.4465V15.5535H78.0352C78.46 15.5535 78.8363 15.6301 79.1642 15.7834C79.4943 15.9367 79.7496 16.1542 79.9301 16.4358C80.1106 16.7175 80.2008 17.0401 80.2008 17.4037V17.5989C80.2008 17.9679 80.1095 18.2923 79.9268 18.5722C79.7463 18.8521 79.4877 19.0677 79.151 19.2193C78.8165 19.3708 78.4325 19.4465 77.9989 19.4465H76.6157ZM77.4509 16.0989V18.9064H77.9956C78.4336 18.9064 78.7692 18.7959 79.0025 18.5749C79.238 18.3521 79.3579 18.033 79.3623 17.6176V17.4011C79.3623 16.9786 79.249 16.656 79.0223 16.4332C78.7956 16.2103 78.4666 16.0989 78.0352 16.0989H77.4509Z" fill="#556579"/>
<path d="M85.4787 18.484L86.2181 15.5535H87.0467L85.9375 19.4465H85.1386L84.2242 16.6043L83.29 19.4465H82.4878L81.3786 15.5535H82.2072L82.9533 18.4786L83.871 15.5535H84.5708L85.4787 18.484Z" fill="#556579"/>
<path d="M90.8787 18.5401H89.0168L88.6273 19.4465H87.7591L89.5747 15.5535H90.3241L92.143 19.4465H91.2715L90.8787 18.5401ZM89.2512 17.9947H90.6443L89.9478 16.3797L89.2512 17.9947Z" fill="#556579"/>
<path d="M95.1332 17.9465H94.2023V19.4465H93.3671V15.5535H95.0573C95.6119 15.5535 96.0399 15.6542 96.3414 15.8556C96.6429 16.057 96.7937 16.3485 96.7937 16.7299C96.7937 16.9902 96.7155 17.2086 96.5593 17.385C96.4052 17.5597 96.1896 17.6943 95.9123 17.7888L96.9917 19.4118V19.4465H96.0971L95.1332 17.9465ZM94.2023 17.4037H95.0606C95.3423 17.4037 95.5624 17.3467 95.7208 17.2326C95.8793 17.1168 95.9585 16.959 95.9585 16.7594C95.9585 16.5508 95.8848 16.3895 95.7373 16.2754C95.5921 16.1613 95.3742 16.1025 95.0837 16.0989H94.2023V17.4037Z" fill="#556579"/>
<path d="M101.071 17.7086H99.0972V18.9064H101.405V19.4465H98.262V15.5535H101.382V16.0989H99.0972V17.1738H101.071V17.7086Z" fill="#556579"/>
<path d="M106.203 15.5535L107.59 18.5374L108.973 15.5535H110.052V19.4465H109.221V18.1631L109.303 16.4465L107.884 19.4465H107.286L105.87 16.4492L105.952 18.1631V19.4465H105.12V15.5535H106.203Z" fill="#556579"/>
<path d="M114.469 18.5401H112.607L112.217 19.4465H111.349L113.165 15.5535H113.914L115.733 19.4465H114.862L114.469 18.5401ZM112.841 17.9947H114.234L113.538 16.3797L112.841 17.9947Z" fill="#556579"/>
<path d="M120.77 19.4465H119.935L117.792 16.6845V19.4465H116.957V15.5535H117.792L119.941 18.3262V15.5535H120.77V19.4465Z" fill="#556579"/>
<path d="M125.183 18.5401H123.321L122.931 19.4465H122.063L123.879 15.5535H124.628L126.447 19.4465H125.576L125.183 18.5401ZM123.555 17.9947H124.949L124.252 16.3797L123.555 17.9947Z" fill="#556579"/>
<path d="M131.283 18.9412C131.109 19.1248 130.868 19.2638 130.56 19.3583C130.252 19.4528 129.902 19.5 129.51 19.5C129.107 19.5 128.751 19.426 128.44 19.2781C128.13 19.1301 127.89 18.9189 127.721 18.6444C127.554 18.3681 127.467 18.0463 127.46 17.6791V17.3743C127.46 16.7861 127.634 16.3271 127.982 15.9973C128.329 15.6658 128.815 15.5 129.437 15.5C129.972 15.5 130.397 15.607 130.712 15.8209C131.026 16.0348 131.216 16.3431 131.279 16.746H130.461C130.368 16.2772 130.033 16.0428 129.454 16.0428C129.08 16.0428 128.795 16.1524 128.599 16.3717C128.405 16.5891 128.305 16.9091 128.299 17.3316V17.631C128.299 18.0517 128.407 18.3788 128.625 18.6123C128.845 18.844 129.15 18.9599 129.54 18.9599C129.967 18.9599 130.27 18.8815 130.451 18.7246V17.9626H129.461V17.4492H131.283V18.9412Z" fill="#556579"/>
<path d="M135.686 17.7086H133.712V18.9064H136.019V19.4465H132.877V15.5535H135.996V16.0989H133.712V17.1738H135.686V17.7086Z" fill="#556579"/>
<path d="M139.141 17.9465H138.211V19.4465H137.375V15.5535H139.066C139.62 15.5535 140.048 15.6542 140.35 15.8556C140.651 16.057 140.802 16.3485 140.802 16.7299C140.802 16.9902 140.724 17.2086 140.568 17.385C140.413 17.5597 140.198 17.6943 139.921 17.7888L141 19.4118V19.4465H140.105L139.141 17.9465ZM138.211 17.4037H139.069C139.351 17.4037 139.571 17.3467 139.729 17.2326C139.888 17.1168 139.967 16.959 139.967 16.7594C139.967 16.5508 139.893 16.3895 139.746 16.2754C139.6 16.1613 139.382 16.1025 139.092 16.0989H138.211V17.4037Z" fill="#556579"/>
</g>
<defs>
<clipPath id="clip0_49_386">
<rect width="156" height="20" fill="white"/>
</clipPath>
</defs>
</svg>
