<svg width="138" height="16" viewBox="0 0 138 16" fill="none" xmlns="http://www.w3.org/2000/svg">
<g clip-path="url(#clip0_48_306)">
<path fill-rule="evenodd" clip-rule="evenodd" d="M0 10.8697C14.3939 8.7909 30.9992 5.29577 42 0C37.4163 5.1831 35.059 10.0282 32.3088 16C31.8503 15.8377 31.3905 15.6791 30.9295 15.5243C34.3658 9.4554 37.3945 4.79091 39.5117 2.47887C36.3302 5.28627 32.6857 9.54586 29.0257 14.908C28.3312 14.6917 27.6341 14.4838 26.9346 14.2843C30.0844 11.2945 33.6411 7.87455 38.7259 2.47887C35.5859 5.03832 30.4645 8.98841 24.6777 13.4517L24.6771 13.4521L24.4631 13.6172C23.5899 13.3948 22.7132 13.1854 21.8332 12.9892C26.6361 10.2504 31.6833 7.06084 38.2021 2.25351C34.4373 4.60922 27.0948 8.5521 19.06 12.4167C17.4665 12.1139 15.8633 11.854 14.2515 11.6376C23.9941 8.74243 33.2571 4.81023 37.9402 2.02817C34.409 3.8721 22.1729 8.09091 9.9736 11.1675C6.67527 10.8851 3.34695 10.7841 0 10.8697ZM105.142 3H96.8805C95.6661 3 94.6434 3.86182 94.4357 5.03704L94.1161 6.80769C93.8604 8.2963 95.0269 9.65954 96.5769 9.65954H100.684L103.033 7.43447H97.0403C96.6568 7.43447 96.3692 7.08974 96.4331 6.72935L96.6089 5.7265C96.6568 5.42878 96.9285 5.22507 97.2321 5.22507H104.679L103.113 13.9687H105.382L106.98 5.16239C107.171 4.03419 106.293 3 105.142 3ZM59.9349 3.01567H51.6894C50.4749 3.01567 49.4522 3.86182 49.2445 5.02137L48.9249 6.80769C48.6533 8.2963 49.8198 9.65954 51.3698 9.65954L58.7683 9.67521L58.4008 11.7593H48.0301C47.8223 12.9188 48.7172 13.9843 49.9156 13.9843H58.6725C59.5833 13.9843 60.3503 13.3576 60.5101 12.4801L61.0374 9.59687C61.2292 8.46866 60.3503 7.45014 59.1998 7.45014H51.0981L51.4976 5.22507H61.8204C62.0282 4.06553 61.1173 3.01567 59.9349 3.01567ZM74.8299 3.01567H64.5071L62.5416 13.9687H73.5196C74.4145 13.9687 75.1975 13.3419 75.3573 12.4644L75.8207 9.92593C75.9325 9.29915 75.5331 8.71937 74.9578 8.54701C75.5659 8.54701 76.1174 8.15971 76.2362 7.54416L76.6676 5.16239C76.8753 4.03419 75.9965 3.01567 74.8299 3.01567ZM74.2707 5.94587L74.0789 6.94872C74.031 7.23077 73.7753 7.45014 73.4717 7.45014H68.2783L67.8788 9.65954H72.8804C73.2639 9.65954 73.5676 10.0043 73.4877 10.3803L73.3279 11.2578C73.2799 11.5556 73.0243 11.7593 72.7206 11.7593H65.2102L66.3927 5.22507H73.6475C74.031 5.22507 74.3346 5.5698 74.2707 5.94587ZM84.8256 7.04274L88.5967 3.47009C89.7354 2.4094 91.9475 3.30296 91.6329 4.97436L90.0189 13.9687H87.7498L89.14 6.07123L84.5379 10.396L81.1662 5.97721L79.744 13.9687H77.4749L79.2007 4.39459C79.4558 2.97749 81.3801 2.53962 82.2369 3.67379L84.8256 7.04274ZM115.828 9.67521H112.536L114.869 7.45014H118.145L115.828 9.67521ZM120.191 3.01567H120.206C121.405 3.01567 122.3 4.06553 122.092 5.2094V5.22507L121.053 10.9601C120.75 12.6994 119.2 13.9687 117.378 13.9687H110.251C109.053 13.9687 108.142 12.9188 108.334 11.7593H108.366L109.388 6.03989C109.708 4.2849 111.258 3.01567 113.064 3.01567H120.191ZM118.912 10.255L119.679 5.94587C119.743 5.5698 119.455 5.22507 119.072 5.22507H113.383C112.472 5.22507 111.705 5.86752 111.546 6.74501L110.763 11.0385C110.699 11.4145 111.002 11.7593 111.386 11.7593H117.074C117.969 11.7593 118.752 11.1168 118.912 10.255ZM134.708 3.01567L130.426 7.0584L127.342 3.01567H124.481L128.764 8.60969L123.075 13.9843H126.351L138 3.01567H134.708ZM130.825 11.3048L132.887 14L135.731 13.9843L132.487 9.73789L130.825 11.3048Z" fill="#556579"/>
</g>
<defs>
<clipPath id="clip0_48_306">
<rect width="138" height="16" fill="white"/>
</clipPath>
</defs>
</svg>
