<svg width="152" height="16" viewBox="0 0 152 16" fill="none" xmlns="http://www.w3.org/2000/svg">
<g clip-path="url(#clip0_49_387)">
<path fill-rule="evenodd" clip-rule="evenodd" d="M30.7676 5.88127C30.8373 5.95933 30.9045 6.03938 30.9692 6.1213L20.0432 13.765C19.1913 13.5665 18.3449 13.3843 17.506 13.2173C22.8296 10.5425 27.3454 7.95764 30.7676 5.88127ZM31.3968 6.75586L22.4424 14.3647C23.0864 14.5367 23.7322 14.7185 24.3791 14.9103C26.9669 11.8983 29.4574 9.25669 31.5833 7.11827C31.5262 6.99485 31.4639 6.87397 31.3968 6.75586ZM31.8076 7.69652C29.611 10.3479 27.7764 12.9524 26.2048 15.4783C26.7178 15.6455 27.2309 15.8194 27.7437 16C29.1982 13.1822 30.6519 10.6992 32 8.6079C31.9653 8.29474 31.9002 7.99008 31.8076 7.69652ZM13.3595 12.501C18.6194 10.7655 24.3125 8.56145 30.3797 5.49027C30.272 5.39246 30.16 5.29878 30.0439 5.20948C25.1027 7.26438 18.0834 9.76045 9.58922 12.0314C10.8121 12.1565 12.0717 12.3116 13.3595 12.501ZM26.5698 4.04754C27.7431 4.04754 28.8295 4.39172 29.7192 4.97804C20.7676 8.17086 9.75918 11.4646 0.137697 11.5974C0.0474235 11.1875 0 10.7631 0 10.3285C0 6.8543 3.01534 4.04754 6.72723 4.04754C7.35047 4.04754 7.9462 4.13311 8.51444 4.27859C9.23849 1.81412 11.6489 0 14.5176 0C16.4331 0 18.147 0.812931 19.2927 2.07939C19.6135 2.01949 19.9526 1.98526 20.2917 1.98526C22.1614 1.98526 23.7928 2.95222 24.6451 4.38127C25.2409 4.16734 25.8916 4.04754 26.5698 4.04754ZM120.365 3H120.381C121.576 3 122.468 4.06705 122.261 5.21255V5.22825L121.225 10.9558C120.923 12.7133 119.377 13.9843 117.56 13.9843H110.454C109.259 13.9843 108.35 12.933 108.542 11.7718H108.573L109.593 6.02853C109.912 4.28673 111.458 3 113.258 3H120.365ZM119.09 10.2496L119.855 5.93438C119.919 5.57347 119.632 5.22825 119.249 5.22825H113.577C112.669 5.22825 111.904 5.85592 111.744 6.73466L110.964 11.0499C110.9 11.4265 111.203 11.7718 111.585 11.7718H117.258C118.15 11.7718 118.931 11.1284 119.09 10.2496ZM45.679 3.01569H53.9012C55.0803 3.01569 55.9886 4.06705 55.7814 5.22825H45.4878L45.0894 7.45649H53.1682C54.3155 7.45649 55.1919 8.47646 55.0006 9.60628L54.4748 12.4936C54.3155 13.3723 53.5506 14 52.6423 14H43.9102C42.7152 14 41.8228 12.933 42.03 11.7718H52.3715L52.7379 9.68474L45.3603 9.66904C43.8146 9.66904 42.6514 8.30385 42.9223 6.81312L43.241 5.02425C43.4481 3.86305 44.4679 3.01569 45.679 3.01569ZM64.1955 3.01569C64.9763 3.01569 65.6774 3.50214 65.9323 4.22397L69.4538 13.9843H67.1911L65.9801 10.6576H61.3432L62.841 8.55492H65.2312L63.9883 5.1184L57.6623 13.9843H55.3837L62.6817 3.78459C63.0322 3.29815 63.59 3.01569 64.1955 3.01569ZM80.7879 3.01569H72.8366C71.514 3.01569 70.3827 3.94151 70.1596 5.22825H75.2267L73.6652 13.9843H75.9279L77.5054 5.22825H82.6681C82.8753 4.06705 81.967 3.01569 80.7879 3.01569ZM87.6447 3.01569H94.7515C95.9465 3.01569 96.8548 4.06705 96.6477 5.22825H87.9634C87.0551 5.22825 86.2902 5.87161 86.1309 6.75036L85.3501 11.0499C85.2864 11.4265 85.5891 11.7718 85.9716 11.7718H95.357L95.2295 12.4308C95.0701 13.3253 94.2734 13.9843 93.3333 13.9843H84.8402C83.6451 13.9843 82.7369 12.933 82.9281 11.7718H82.9599L83.9797 6.04422C84.2984 4.28673 85.8441 3.01569 87.6447 3.01569ZM105.293 11.7718H99.6203L101.198 3.01569H98.9192L96.9593 14L107.189 13.9843C107.396 12.8388 106.488 11.7718 105.293 11.7718ZM135.209 3.01569L133.903 10.2653C133.743 11.1284 132.979 11.7718 132.07 11.7718H127.88C126.732 11.7718 125.856 10.7518 126.047 9.62197L127.242 3.01569H124.963L123.768 9.70043C123.37 11.9444 125.123 14 127.433 14H132.389C134.19 14 135.735 12.7133 136.054 10.9715L137.472 3.01569H135.209ZM139.86 3.01569H150.074C151.269 3.01569 152.178 4.06705 151.97 5.22825L150.935 10.9558C150.616 12.7133 149.07 13.9843 147.27 13.9843H137.9L139.86 3.01569ZM148.831 10.2496L149.596 5.95007C149.66 5.57347 149.373 5.22825 148.991 5.22825H141.741L140.561 11.7718H146.999C147.891 11.7718 148.672 11.1284 148.831 10.2496Z" fill="#556579"/>
</g>
<defs>
<clipPath id="clip0_49_387">
<rect width="152" height="16" fill="white"/>
</clipPath>
</defs>
</svg>
