<svg width="137" height="44" viewBox="0 0 137 44" fill="none" xmlns="http://www.w3.org/2000/svg">
<g clip-path="url(#clip0_49_390)">
<g filter="url(#filter0_n_49_390)">
<path d="M10.6899 34.0283C11.7491 34.0283 12.5645 34.983 12.3784 36.0371H3.1333L2.7749 38.0596H10.0317C11.0621 38.0597 11.849 38.9861 11.6772 40.0117L11.2056 42.6328C11.0623 43.4304 10.3748 44 9.55908 44H1.7163C0.642966 44 -0.158984 43.0315 0.0268501 41.9775H9.31591L9.64501 40.083L3.01806 40.0684C1.62985 40.0682 0.585306 38.8288 0.828608 37.4756L1.11474 35.8516C1.3009 34.7977 2.21669 34.0285 3.30419 34.0283H10.6899ZM23.9888 34.0283C25.0476 34.0286 25.8631 34.9828 25.6772 36.0225L25.2046 38.6582C25.0614 39.4843 24.3461 40.0683 23.5161 40.0684H17.7768L18.1343 38.0596H22.4995C22.7714 38.0596 23.0008 37.8605 23.0581 37.5898L23.2153 36.6924C23.2726 36.3505 23.0149 36.0371 22.6714 36.0371H16.4741L15.0571 43.9854H13.0249L14.7856 34.0283H23.9888ZM32.2085 34.0283C32.9098 34.0283 33.54 34.4698 33.769 35.125L36.9321 43.9854H34.8989L33.811 40.9658H29.647L30.9917 39.0566H33.1392L32.022 35.9375L26.3403 43.9854H24.2935L30.8491 34.7266C31.164 34.285 31.6647 34.0283 32.2085 34.0283ZM48.8081 34.0283C49.8816 34.0283 50.6973 34.983 50.5112 36.0371H42.7114C41.8956 36.0371 41.2081 36.6212 41.0649 37.4189L40.3638 41.3223C40.3067 41.664 40.579 41.9775 40.9224 41.9775H49.352L49.2378 42.5752C49.0947 43.3871 48.379 43.9852 47.5347 43.9854H39.9058C38.8324 43.9854 38.0165 43.0315 38.188 41.9775H38.2173L39.1333 36.7773C39.4197 35.1823 40.8073 34.0285 42.4243 34.0283H48.8081ZM63.4292 36.0371H54.2407L53.1811 41.9775H62.3843L62.0269 43.9854H50.7915L52.5522 34.0283H63.7876L63.4292 36.0371ZM74.9643 34.0283C76.0092 34.0283 76.7959 34.9548 76.6099 35.9805L76.2241 38.1455C76.1239 38.6725 75.6654 39.0566 75.1216 39.0566H75.0786C75.5938 39.2133 75.9522 39.7408 75.852 40.3105L75.437 42.6182C75.2939 43.4159 74.592 43.9854 73.7905 43.9854H63.9575L64.1587 42.832L64.3013 41.9775H64.3159L65.7183 34.0283H74.9643ZM93.8892 43.9854H91.8559L93.6167 34.0283H95.6636L93.8892 43.9854ZM107.74 34.0283C108.813 34.0286 109.629 34.9831 109.443 36.0371L108.512 41.2363C108.226 42.8318 106.838 43.9854 105.22 43.9854H96.8042L98.5649 34.0283H107.74ZM121.602 34.0283C122.675 34.0285 123.491 34.9831 123.305 36.0371H115.504C114.689 36.0372 114.002 36.6213 113.859 37.4189L113.157 41.3223C113.1 41.664 113.372 41.9775 113.715 41.9775H119.741C120.013 41.9775 120.242 41.7778 120.285 41.5215L120.542 40.0684H117.265L117.652 38.0596H122.947L122.146 42.5752C122.003 43.3872 121.286 43.9854 120.442 43.9854H112.699C111.626 43.9851 110.81 43.0314 110.982 41.9775H111.01L111.926 36.7773C112.213 35.1821 113.601 34.0283 115.218 34.0283H121.602ZM136.642 36.0371H127.454L126.394 41.9775H135.597L135.24 43.9854H124.004L125.764 34.0283H137L136.642 36.0371ZM89.0259 34C90.0704 34.0003 90.8571 34.9401 90.6714 35.9512L90.1851 38.6729C90.0561 39.4704 89.3542 40.0537 88.5386 40.0537H86.3921L89.3686 43.9717H86.8071L82.5991 38.3877C82.4846 38.2452 82.5849 38.0312 82.771 38.0312H87.7231C87.995 38.0312 88.2235 37.8458 88.2808 37.5752L88.439 36.6641C88.4962 36.3365 88.2384 36.0226 87.895 36.0225H81.4536L80.0513 43.9717H78.0044L79.7798 34H89.0259ZM66.3481 41.9775H73.0747C73.3466 41.9775 73.5756 41.7921 73.6186 41.5215L73.7622 40.7236C73.8337 40.3818 73.5617 40.0684 73.2183 40.0684H68.7388L69.0962 38.0596H73.7476C74.0195 38.0596 74.2486 37.8599 74.2915 37.6035L74.4634 36.6924C74.5206 36.3505 74.2483 36.0371 73.9048 36.0371H67.4067L66.3481 41.9775ZM99.1948 41.9775H104.977C105.778 41.9775 106.479 41.3932 106.623 40.5957L107.31 36.6924C107.367 36.3505 107.11 36.0372 106.766 36.0371H100.253L99.1948 41.9775ZM58.7202 40.0684H54.6558L55.0132 38.0596H59.0786L58.7202 40.0684ZM131.933 40.0684H127.869L128.226 38.0596H132.292L131.933 40.0684ZM107.5 0C98.988 9.71827 94.6099 18.8029 89.5024 30C88.651 29.6958 87.7968 29.3987 86.9409 29.1084C93.3226 17.7293 98.9474 8.98252 102.879 4.64746C96.971 9.91128 90.2019 17.8982 83.4048 27.9521C82.1151 27.5465 80.82 27.1572 79.521 26.7832C85.3706 21.1774 91.9761 14.7644 101.419 4.64746C95.5878 9.44642 86.0764 16.853 75.3296 25.2217L75.3286 25.2227C75.1964 25.3256 75.0638 25.429 74.9311 25.5322C73.3096 25.1152 71.6815 24.7223 70.0474 24.3545C78.967 19.2192 88.3406 13.2392 100.447 4.22559C93.455 8.64254 79.8188 16.0351 64.897 23.2812C61.9378 22.7135 58.9604 22.226 55.9673 21.8203C74.0606 16.3919 91.2633 9.01908 99.9604 3.80273C93.4026 7.26011 70.6777 15.1708 48.022 20.9395C41.8968 20.4099 35.716 20.2203 29.5005 20.3809C56.2319 16.483 87.0705 9.92952 107.5 0Z" fill="url(#paint0_linear_49_390)"/>
</g>
</g>
<defs>
<filter id="filter0_n_49_390" x="0" y="0" width="137" height="44" filterUnits="userSpaceOnUse" color-interpolation-filters="sRGB">
<feFlood flood-opacity="0" result="BackgroundImageFix"/>
<feBlend mode="normal" in="SourceGraphic" in2="BackgroundImageFix" result="shape"/>
<feTurbulence type="fractalNoise" baseFrequency="5 5" stitchTiles="stitch" numOctaves="3" result="noise" seed="3799" />
<feColorMatrix in="noise" type="luminanceToAlpha" result="alphaNoise" />
<feComponentTransfer in="alphaNoise" result="coloredNoise1">
<feFuncA type="discrete" tableValues="1 1 1 1 1 1 1 1 1 1 1 1 1 1 1 1 1 1 1 1 1 1 1 1 1 1 1 1 1 1 1 1 1 1 1 1 1 1 1 1 1 1 1 1 1 1 1 1 1 1 1 0 0 0 0 0 0 0 0 0 0 0 0 0 0 0 0 0 0 0 0 0 0 0 0 0 0 0 0 0 0 0 0 0 0 0 0 0 0 0 0 0 0 0 0 0 0 0 0 0 "/>
</feComponentTransfer>
<feComposite operator="in" in2="shape" in="coloredNoise1" result="noise1Clipped" />
<feComponentTransfer in="alphaNoise" result="coloredNoise2">
<feFuncA type="discrete" tableValues="0 0 0 0 0 0 0 0 0 0 0 0 0 0 0 0 0 0 0 0 0 0 0 0 0 0 0 0 0 0 0 0 0 0 0 0 0 0 0 0 0 0 0 0 0 0 0 0 0 1 1 1 1 1 1 1 1 1 1 1 1 1 1 1 1 1 1 1 1 1 1 1 1 1 1 1 1 1 1 1 1 1 1 1 1 1 1 1 1 1 1 1 1 1 1 1 1 1 1 1 "/>
</feComponentTransfer>
<feComposite operator="in" in2="shape" in="coloredNoise2" result="noise2Clipped" />
<feFlood flood-color="rgba(254, 196, 80, 0.36)" result="color1Flood" />
<feComposite operator="in" in2="noise1Clipped" in="color1Flood" result="color1" />
<feFlood flood-color="rgba(255, 255, 255, 0.25)" result="color2Flood" />
<feComposite operator="in" in2="noise2Clipped" in="color2Flood" result="color2" />
<feMerge result="effect1_noise_49_390">
<feMergeNode in="shape" />
<feMergeNode in="color1" />
<feMergeNode in="color2" />
</feMerge>
</filter>
<linearGradient id="paint0_linear_49_390" x1="0" y1="0" x2="77.0824" y2="93.4327" gradientUnits="userSpaceOnUse">
<stop stop-color="#FFE998"/>
<stop offset="1" stop-color="#57370D"/>
</linearGradient>
<clipPath id="clip0_49_390">
<rect width="137" height="44" fill="white"/>
</clipPath>
</defs>
</svg>
