<svg width="32" height="16" viewBox="0 0 32 16" fill="none" xmlns="http://www.w3.org/2000/svg">
<g clip-path="url(#clip0_87_449)">
<path fill-rule="evenodd" clip-rule="evenodd" d="M30.7676 5.88127C30.8373 5.95933 30.9045 6.03938 30.9692 6.1213L20.0432 13.765C19.1913 13.5665 18.3449 13.3843 17.506 13.2173C22.8296 10.5425 27.3454 7.95764 30.7676 5.88127ZM31.3968 6.75586L22.4424 14.3647C23.0864 14.5367 23.7322 14.7185 24.3791 14.9103C26.9669 11.8983 29.4574 9.25669 31.5833 7.11827C31.5262 6.99485 31.4639 6.87397 31.3968 6.75586ZM31.8076 7.69652C29.611 10.3479 27.7764 12.9524 26.2048 15.4783C26.7178 15.6455 27.2309 15.8194 27.7437 16C29.1982 13.1822 30.6519 10.6992 32 8.6079C31.9653 8.29474 31.9002 7.99008 31.8076 7.69652ZM13.3595 12.501C18.6194 10.7655 24.3125 8.56145 30.3797 5.49027C30.272 5.39246 30.16 5.29878 30.0439 5.20948C25.1027 7.26438 18.0834 9.76045 9.58922 12.0314C10.8121 12.1565 12.0717 12.3116 13.3595 12.501ZM26.5698 4.04754C27.7431 4.04754 28.8295 4.39172 29.7192 4.97804C20.7676 8.17086 9.75918 11.4646 0.137697 11.5974C0.0474235 11.1875 0 10.7631 0 10.3285C0 6.8543 3.01534 4.04754 6.72723 4.04754C7.35047 4.04754 7.9462 4.13311 8.51444 4.27859C9.23849 1.81412 11.6489 0 14.5176 0C16.4331 0 18.147 0.812931 19.2927 2.07939C19.6135 2.01949 19.9526 1.98526 20.2917 1.98526C22.1614 1.98526 23.7928 2.95222 24.6451 4.38127C25.2409 4.16734 25.8916 4.04754 26.5698 4.04754Z" fill="#556579"/>
</g>
<defs>
<clipPath id="clip0_87_449">
<rect width="32" height="16" fill="white"/>
</clipPath>
</defs>
</svg>
