<svg width="16" height="16" viewBox="0 0 16 16" fill="none" xmlns="http://www.w3.org/2000/svg">
<path d="M3.83762 3.48178C3.87238 3.20655 4.10871 3 4.38889 3H11.6111C11.8913 3 12.1276 3.20655 12.1624 3.48178L12.9957 10.0818C12.9986 10.1044 13 10.1272 13 10.15V13.45C13 13.7538 12.7513 14 12.4444 14H3.55556C3.24873 14 3 13.7538 3 13.45V10.15C3 10.1272 3.00143 10.1044 3.00429 10.0818L3.83762 3.48178ZM4.87932 4.1L4.18488 9.6H11.8151L11.1207 4.1H4.87932ZM11.8889 10.7H4.11111V12.9H11.8889V10.7ZM9.66667 11.25H10.7778V12.35H9.66667V11.25ZM8.55556 11.25H7.44444V12.35H8.55556V11.25Z" fill="#313D53"/>
</svg>
