<svg width="16" height="16" viewBox="0 0 16 16" fill="none" xmlns="http://www.w3.org/2000/svg">
<path d="M4.38889 3C4.10871 3 3.87238 3.20655 3.83762 3.48178L3.00429 10.0818C3.00143 10.1044 3 10.1272 3 10.15V13.45C3 13.7538 3.24873 14 3.55556 14H12.4444C12.7513 14 13 13.7538 13 13.45V10.15C13 10.1272 12.9986 10.1044 12.9957 10.0818L12.1624 3.48178C12.1276 3.20655 11.8913 3 11.6111 3H4.38889ZM4.11111 10.7H11.8889V12.9H4.11111V10.7ZM9.66667 11.25H10.7778V12.35H9.66667V11.25ZM8.55556 11.25H7.44444V12.35H8.55556V11.25Z" fill="#313D53"/>
</svg>
