<svg width="16" height="16" viewBox="0 0 16 16" fill="none" xmlns="http://www.w3.org/2000/svg">
<path d="M11 2C11.3314 2 11.6 2.26863 11.6 2.6V5H13.4C13.7314 5 14 5.26863 14 5.6V11.6C14 11.9314 13.7314 12.2 13.4 12.2H11.6V13.4C11.6 13.7314 11.3314 14 11 14H5C4.66863 14 4.4 13.7314 4.4 13.4V12.2H2.6C2.26863 12.2 2 11.9314 2 11.6V5.6C2 5.26863 2.26863 5 2.6 5H4.4V2.6C4.4 2.26863 4.66863 2 5 2H11ZM10.4 11H5.6V12.8H10.4V11ZM12.8 6.2H3.2V11H4.4V10.4C4.4 10.0686 4.66863 9.8 5 9.8H11C11.3314 9.8 11.6 10.0686 11.6 10.4V11H12.8V6.2ZM5.6 6.8V8H3.8V6.8H5.6ZM10.4 3.2H5.6V5H10.4V3.2Z" fill="#313D53"/>
</svg>
