<svg width="16" height="16" viewBox="0 0 16 16" fill="none" xmlns="http://www.w3.org/2000/svg">
<path d="M4.6713 7.81259C5.13485 7.81262 5.5942 7.90359 6.02247 8.08058C6.4506 8.25757 6.83965 8.51693 7.16737 8.84387C7.49518 9.17093 7.75555 9.55944 7.93297 9.98677C8.11035 10.4141 8.20156 10.8724 8.20157 11.3349C8.20155 11.7974 8.10979 12.2557 7.93239 12.683C7.75499 13.1102 7.49565 13.4989 7.16795 13.8259C6.93509 14.0582 6.5573 14.0579 6.32428 13.8259L2.17465 9.68564C1.94182 9.45317 1.94174 9.0763 2.17465 8.84387C2.50235 8.51695 2.89145 8.25758 3.31956 8.08058C3.74789 7.90356 4.20768 7.81259 4.6713 7.81259ZM13.8253 10.5082C14.0582 10.7407 14.0583 11.1175 13.8253 11.35L12.0354 13.1358C11.8024 13.3682 11.4247 13.3682 11.1917 13.1358L9.10351 11.0523L11.7371 8.42473L13.8253 10.5082ZM9.82367 3.78571C9.98189 3.78572 10.1336 3.84848 10.2455 3.96011L12.0354 5.74596C12.2683 5.97844 12.2684 6.35528 12.0354 6.58772L8.81801 9.79725C8.7991 9.74648 8.78056 9.69507 8.75975 9.64494C8.33019 8.61041 7.40244 7.68453 6.36506 7.25567C6.30146 7.22939 6.23684 7.20509 6.17221 7.18185L9.40183 3.96011L9.44553 3.92058C9.5517 3.83376 9.68519 3.78571 9.82367 3.78571ZM4.67422 2.13357C4.90856 1.94287 5.25401 1.95632 5.47245 2.17426L7.56066 4.25775L4.92709 6.88537L2.83887 4.80188C2.60589 4.56942 2.60592 4.19258 2.83887 3.96011L4.62877 2.17426L4.67422 2.13357Z" fill="#313D53"/>
<path d="M3.5 12C3.5 11.7239 3.72386 11.5 4 11.5C4.27614 11.5 4.5 11.7239 4.5 12C4.5 12.2761 4.27614 12.5 4 12.5C3.72386 12.5 3.5 12.2761 3.5 12Z" fill="#313D53"/>
</svg>
