<svg width="16" height="16" viewBox="0 0 16 16" fill="none" xmlns="http://www.w3.org/2000/svg">
<path d="M3.09091 5.125H12.9091V11.875H3.09091V5.125ZM2.54545 4C2.24421 4 2 4.25184 2 4.5625V12.4375C2 12.7482 2.24421 13 2.54545 13H13.4545C13.7558 13 14 12.7482 14 12.4375V4.5625C14 4.25184 13.7558 4 13.4545 4H2.54545ZM8.54545 6.8125H11.8182V7.9375H8.54545V6.8125ZM11.2727 9.0625H8.54545V10.1875H11.2727V9.0625ZM4.72727 9.0625H5.27273V10.75H6.36364V7.9375H4.72727V9.0625ZM6.36364 6.25H5.27273V7.375H6.36364V6.25Z" fill="#313D53"/>
</svg>
