<svg width="16" height="16" viewBox="0 0 16 16" fill="none" xmlns="http://www.w3.org/2000/svg">
<path d="M8.00001 3.32899L3.32899 8.00001L8.00001 12.671L12.671 8.00001L8.00001 3.32899ZM8.38926 2.16124L13.8388 7.61076C14.0537 7.82573 14.0537 8.17429 13.8388 8.38926L8.38926 13.8388C8.17429 14.0537 7.82573 14.0537 7.61076 13.8388L2.16124 8.38926C1.94625 8.17429 1.94625 7.82573 2.16124 7.61076L7.61076 2.16124C7.82573 1.94625 8.17429 1.94625 8.38926 2.16124ZM8.5505 6.89904V5.52282L10.4772 7.44953L8.5505 9.37622V8.00001H6.89904V9.65146H5.79806V7.44953C5.79806 7.14549 6.04453 6.89904 6.34855 6.89904H8.5505Z" fill="#313D53"/>
</svg>
