<svg width="16" height="16" viewBox="0 0 16 16" fill="none" xmlns="http://www.w3.org/2000/svg">
<path d="M8.00002 2C11.4889 2 14.3915 4.58651 15 8C14.3915 11.4135 11.4889 14 8.00002 14C4.51111 14 1.60854 11.4135 1 8C1.60854 4.58651 4.51111 2 8.00002 2ZM8.00002 12.6667C10.7406 12.6667 13.0857 10.7013 13.6793 8C13.0857 5.29869 10.7406 3.33333 8.00002 3.33333C5.25939 3.33333 2.9143 5.29869 2.32068 8C2.9143 10.7013 5.25939 12.6667 8.00002 12.6667ZM8.00002 11C6.39194 11 5.08835 9.65687 5.08835 8C5.08835 6.34315 6.39194 5 8.00002 5C9.60802 5 10.9117 6.34315 10.9117 8C10.9117 9.65687 9.60802 11 8.00002 11ZM8.00002 9.66667C8.89338 9.66667 9.6176 8.92047 9.6176 8C9.6176 7.07953 8.89338 6.33333 8.00002 6.33333C7.10666 6.33333 6.38241 7.07953 6.38241 8C6.38241 8.92047 7.10666 9.66667 8.00002 9.66667Z" fill="#313D53"/>
</svg>
