<svg width="16" height="16" viewBox="0 0 16 16" fill="none" xmlns="http://www.w3.org/2000/svg">
<path d="M11.4701 10.6346L14 13.1646L13.1646 14L10.6346 11.4701C9.72497 12.1978 8.57133 12.6332 7.31661 12.6332C4.38184 12.6332 2 10.2514 2 7.31661C2 4.38184 4.38184 2 7.31661 2C10.2514 2 12.6332 4.38184 12.6332 7.31661C12.6332 8.57133 12.1978 9.72497 11.4701 10.6346ZM10.2849 10.1963C11.0072 9.45188 11.4517 8.43641 11.4517 7.31661C11.4517 5.03194 9.60127 3.18147 7.31661 3.18147C5.03194 3.18147 3.18147 5.03194 3.18147 7.31661C3.18147 9.60127 5.03194 11.4517 7.31661 11.4517C8.43641 11.4517 9.45188 11.0072 10.1963 10.2849L10.2849 10.1963Z" fill="#313D53"/>
</svg>
