<svg width="16" height="16" viewBox="0 0 16 16" fill="none" xmlns="http://www.w3.org/2000/svg">
<path d="M7.09811 5.17019L5.17375 6.81588H3.13291V9.18419H5.17375L7.09811 10.8299V5.17019ZM4.76934 10.3683H2.56646C2.25361 10.3683 2 10.1033 2 9.77626V6.22379C2 5.89679 2.25361 5.63171 2.56646 5.63171H4.76934L7.76845 3.06692C7.8895 2.96339 8.06794 2.98204 8.16701 3.10858C8.20842 3.16147 8.23102 3.22771 8.23102 3.29605V12.704C8.23102 12.8675 8.10419 13 7.94779 13C7.88242 13 7.81903 12.9764 7.76845 12.9331L4.76934 10.3683ZM12.9973 8.00004L15 10.0933L14.1989 10.9306L12.1962 8.83735L10.1935 10.9306L9.39242 10.0933L11.3951 8.00004L9.39242 5.90672L10.1935 5.06939L12.1962 7.16272L14.1989 5.06939L15 5.90672L12.9973 8.00004Z" fill="#313D53"/>
</svg>
