<svg width="16" height="16" viewBox="0 0 16 16" fill="none" xmlns="http://www.w3.org/2000/svg">
<path d="M7.14849 8.07249L12.3575 3L13.2961 3.91396L12.3575 4.82791L14 6.42735L13.0615 7.3413L11.419 5.74188L10.4804 6.65583L11.8882 8.0268L10.9497 8.94075L9.54185 7.56982L8.08704 8.98644C8.94064 10.2411 8.79988 11.9482 7.66469 13.0535C6.36883 14.3155 4.26779 14.3155 2.97191 13.0535C1.67603 11.7916 1.67603 9.74568 2.97191 8.48377C4.10708 7.37834 5.86008 7.24126 7.14849 8.07249ZM6.72614 12.1396C7.50368 11.3824 7.50368 10.1549 6.72614 9.39773C5.94862 8.64056 4.688 8.64056 3.91047 9.39773C3.13295 10.1549 3.13295 11.3824 3.91047 12.1396C4.688 12.8967 5.94862 12.8967 6.72614 12.1396Z" fill="#313D53"/>
</svg>
