<svg width="16" height="16" viewBox="0 0 16 16" fill="none" xmlns="http://www.w3.org/2000/svg">
<path d="M8.49356 3.2974L13.9235 13.1081C14.081 13.3925 13.9875 13.7562 13.7149 13.9203C13.6283 13.9725 13.5299 14 13.4299 14H2.57C2.2552 14 2 13.7338 2 13.4054C2 13.301 2.02634 13.1985 2.07637 13.1081L7.50632 3.2974C7.6637 3.013 8.01231 2.91557 8.28494 3.07976C8.37158 3.13195 8.44357 3.20701 8.49356 3.2974ZM3.55726 12.8108H12.4426L7.99994 4.78387L3.55726 12.8108ZM7.42994 11.0271H8.56994V12.2162H7.42994V11.0271ZM7.42994 6.86492H8.56994V9.83788H7.42994V6.86492Z" fill="#313D53"/>
</svg>
