<svg width="16" height="16" viewBox="0 0 16 16" fill="none" xmlns="http://www.w3.org/2000/svg">
<path d="M8 2.66659C6.16763 2.66659 4.55006 3.59076 3.58962 4.99992H5.33334V6.33325H1.33334V2.33325H2.66667V3.99949C3.88254 2.38103 5.81843 1.33325 8 1.33325C11.6819 1.33325 14.6667 4.31802 14.6667 7.99992H13.3333C13.3333 5.0544 10.9455 2.66659 8 2.66659ZM2.66667 7.99992C2.66667 10.9455 5.05448 13.3333 8 13.3333C9.8324 13.3333 11.4499 12.4091 12.4104 10.9999H10.6667V9.66658H14.6667V13.6666H13.3333V12.0003C12.1175 13.6188 10.1816 14.6666 8 14.6666C4.3181 14.6666 1.33334 11.6818 1.33334 7.99992H2.66667Z" fill="#313D53"/>
</svg>
