<svg width="16" height="16" viewBox="0 0 16 16" fill="none" xmlns="http://www.w3.org/2000/svg">
<path d="M8 2C11.3137 2 14 4.68629 14 8C14 11.3137 11.3137 14 8 14C4.68629 14 2 11.3137 2 8C2 4.68629 4.68629 2 8 2ZM8 3.34883C7.2055 4.78057 6.81817 6.37014 6.81816 8C6.81816 9.62985 7.20552 11.2194 8 12.6512C8.79448 11.2194 9.18184 9.62985 9.18184 8C9.18183 6.37014 8.79451 4.78057 8 3.34883ZM6.62598 3.3998C4.57754 4.01075 3.23691 5.90065 3.23691 8C3.23692 10.0993 4.57752 11.9893 6.62598 12.6002C5.94418 11.1541 5.61641 9.59282 5.61641 8C5.61641 6.40718 5.94419 4.84587 6.62598 3.3998ZM9.37402 3.3998C10.0558 4.84587 10.3836 6.40718 10.3836 8C10.3836 9.59282 10.0558 11.1541 9.37402 12.6002C11.4225 11.9893 12.7631 10.0993 12.7631 8C12.7631 5.90065 11.4225 4.01075 9.37402 3.3998Z" fill="#313D53"/>
</svg>
