<svg width="16" height="16" viewBox="0 0 16 16" fill="none" xmlns="http://www.w3.org/2000/svg">
<path d="M13.8333 8.80556V13.3889C13.8333 13.7264 13.5722 14 13.25 14H12.6667C12.3445 14 12.0833 13.7264 12.0833 13.3889V12.7778H3.91667V13.3889C3.91667 13.7264 3.6555 14 3.33333 14H2.75C2.42784 14 2.16667 13.7264 2.16667 13.3889V8.80556L1.44185 8.61574C1.18217 8.54773 1 8.30328 1 8.02284V7.58333C1 7.41461 1.13058 7.27778 1.29167 7.27778H2.38542L3.63278 3.79307C3.80354 3.31604 4.23885 3 4.72517 3H11.2748C11.7612 3 12.1964 3.31604 12.3672 3.79307L13.6146 7.27778H14.7083C14.8694 7.27778 15 7.41461 15 7.58333V8.02284C15 8.30328 14.8178 8.54773 14.5581 8.61574L13.8333 8.80556ZM3.33333 9.72222V10.9444C3.33333 11.282 3.5945 11.5556 3.91667 11.5556H5.80956C5.85753 11.5556 5.90477 11.5431 5.94707 11.5194C6.0891 11.4399 6.14268 11.2548 6.06673 11.106C5.59586 10.1835 4.68475 9.72222 3.33333 9.72222ZM12.6667 9.72222C11.3153 9.72222 10.4041 10.1835 9.93322 11.106C9.85728 11.2548 9.91088 11.4399 10.0529 11.5194C10.0952 11.5431 10.1425 11.5556 10.1904 11.5556H12.0833C12.4055 11.5556 12.6667 11.282 12.6667 10.9444V9.72222ZM4.5 4.22222L3.58926 7.08454C3.56944 7.14682 3.55933 7.21208 3.55933 7.27778C3.55933 7.61529 3.8205 7.88889 4.14267 7.88889H11.8573C11.9201 7.88889 11.9823 7.87832 12.0418 7.85754C12.3474 7.75078 12.5126 7.40471 12.4108 7.08454L11.5 4.22222H4.5Z" fill="#313D53"/>
</svg>
