<svg width="16" height="16" viewBox="0 0 16 16" fill="none" xmlns="http://www.w3.org/2000/svg">
<path d="M5.05608 6.81588L6.90909 5.17019V10.8299L5.05608 9.18419H3.09091V6.81588H5.05608ZM2.54545 10.3683H4.66667L7.55458 12.9331C7.60329 12.9764 7.66433 13 7.72727 13C7.87787 13 8 12.8675 8 12.704V3.29605C8 3.22771 7.97824 3.16147 7.93836 3.10858C7.84296 2.98204 7.67115 2.96339 7.55458 3.06692L4.66667 5.63171H2.54545C2.24421 5.63171 2 5.89679 2 6.22379V9.77626C2 10.1033 2.24421 10.3683 2.54545 10.3683ZM14 7.99998C14 9.94909 13.2112 11.6983 11.9612 12.8918L11.1879 12.0524C12.2413 11.075 12.9091 9.62215 12.9091 7.99998C12.9091 6.37778 12.2413 4.92491 11.1879 3.94755L11.9612 3.10812C13.2112 4.30168 14 6.05083 14 7.99998ZM11.2727 7.99998C11.2727 6.86811 10.7851 5.85991 10.0254 5.20936L9.24593 6.05551C9.81162 6.4834 10.1818 7.19475 10.1818 7.99998C10.1818 8.8052 9.81162 9.51652 9.24593 9.94441L10.0254 10.7905C10.7851 10.14 11.2727 9.13179 11.2727 7.99998Z" fill="#313D53"/>
</svg>
