<svg width="16" height="16" viewBox="0 0 16 16" fill="none" xmlns="http://www.w3.org/2000/svg">
<path d="M11 7.4V6.2H9.8V7.4H3.8V5H12.2V7.4H11ZM4.4 3.2V2H5.6V3.2H13.4049C13.7336 3.2 14 3.46697 14 3.79604V13.404C14 13.7331 13.7268 14 13.4049 14H2.59508C2.26643 14 2 13.7331 2 13.404V3.79604C2 3.46686 2.27319 3.2 2.59508 3.2H4.4ZM3.2 4.4V12.8H12.8V4.4H3.2ZM5.6 12.2C4.60589 12.2 3.8 11.3941 3.8 10.4C3.8 9.40586 4.60589 8.6 5.6 8.6C6.59411 8.6 7.4 9.40586 7.4 10.4C7.4 11.3941 6.59411 12.2 5.6 12.2Z" fill="#313D53"/>
</svg>
