<svg width="16" height="16" viewBox="0 0 16 16" fill="none" xmlns="http://www.w3.org/2000/svg">
<path d="M2.77829 13.7V9.8C2.77829 6.92812 5.11613 4.6 7.99999 4.6C10.8839 4.6 13.2217 6.92812 13.2217 9.8V13.7H13.8744V15H2.12558V13.7H2.77829ZM4.08372 13.7H11.9163V9.8C11.9163 7.64609 10.1629 5.9 7.99999 5.9C5.8371 5.9 4.08372 7.64609 4.08372 9.8V13.7ZM7.34728 2H8.65271V3.95H7.34728V2ZM13.0769 3.82495L14 4.74419L12.6154 6.12305L11.6923 5.2038L13.0769 3.82495ZM2 4.74419L2.92307 3.82495L4.30769 5.2038L3.38461 6.12305L2 4.74419ZM4.73643 9.8C4.73643 8.00509 6.19758 6.55 7.99999 6.55V7.85C6.91858 7.85 6.04186 8.72301 6.04186 9.8H4.73643Z" fill="#313D53"/>
</svg>
