<svg width="16" height="16" viewBox="0 0 16 16" fill="none" xmlns="http://www.w3.org/2000/svg">
<path d="M2.66667 2H13.3333C13.7015 2 14 2.29102 14 2.65V14.35C14 14.709 13.7015 15 13.3333 15H2.66667C2.29848 15 2 14.709 2 14.35V2.65C2 2.29102 2.29848 2 2.66667 2ZM3.33333 3.3V13.7H12.6667V3.3H3.33333ZM4.66667 4.6H11.3333V7.2H4.66667V4.6ZM4.66667 8.5H6V9.8H4.66667V8.5ZM4.66667 11.1H6V12.4H4.66667V11.1ZM7.33333 8.5H8.66667V9.8H7.33333V8.5ZM7.33333 11.1H8.66667V12.4H7.33333V11.1ZM10 8.5H11.3333V12.4H10V8.5Z" fill="#313D53"/>
</svg>
