<svg width="16" height="16" viewBox="0 0 16 16" fill="none" xmlns="http://www.w3.org/2000/svg">
<path d="M9.53254 3.68726L7.27776 7.56587L8.39865 8.20856L10.6534 4.32995C13.3516 6.11147 14.7337 8.8796 13.6043 10.8224C12.4005 12.8932 8.9522 12.9787 5.89684 11.2268C2.84151 9.47486 1.1919 6.46627 2.39572 4.39547C3.52512 2.4527 6.63001 2.25736 9.53254 3.68726ZM10.5134 2L11.6343 2.64269L10.6636 4.31245L9.5427 3.66976L10.5134 2ZM4.59097 13.7145H11.2357V14.9999H3.48133C3.43116 15.0008 3.38059 14.9959 3.33068 14.985C3.32126 14.9829 3.31191 14.9806 3.30264 14.9782C3.2492 14.9639 3.19675 14.9426 3.14655 14.9138C3.12765 14.903 3.10949 14.8913 3.09212 14.8789C3.01799 14.8259 2.95563 14.7576 2.90965 14.6787C2.86376 14.5996 2.83536 14.5117 2.82616 14.4213C2.8257 14.4166 2.82528 14.4118 2.82491 14.4071C2.81495 14.282 2.84173 14.1528 2.90969 14.0359L4.36572 11.5312L5.48658 12.1739L4.59097 13.7145Z" fill="#313D53"/>
</svg>
