<svg width="16" height="16" viewBox="0 0 16 16" fill="none" xmlns="http://www.w3.org/2000/svg">
<path d="M8 14C4.68629 14 2 11.3137 2 8C2 4.68629 4.68629 2 8 2C11.3137 2 14 4.68629 14 8C14 11.3137 11.3137 14 8 14ZM8 12.8C10.651 12.8 12.8 10.651 12.8 8C12.8 5.34903 10.651 3.2 8 3.2C5.34903 3.2 3.2 5.34903 3.2 8C3.2 10.651 5.34903 12.8 8 12.8ZM7.4 9.8H8.6V11H7.4V9.8ZM8.6 8.81306V9.2H7.4V8.3C7.4 7.96862 7.66862 7.7 8 7.7C8.49704 7.7 8.9 7.29704 8.9 6.8C8.9 6.30294 8.49704 5.9 8 5.9C7.56338 5.9 7.19936 6.21094 7.11728 6.62346L5.94039 6.38808C6.13182 5.42551 6.9812 4.7 8 4.7C9.1598 4.7 10.1 5.6402 10.1 6.8C10.1 7.7513 9.46742 8.55488 8.6 8.81306Z" fill="#313D53"/>
</svg>
