<svg width="16" height="16" viewBox="0 0 16 16" fill="none" xmlns="http://www.w3.org/2000/svg">
<path d="M4 5.66667V5C4 2.79086 5.79086 1 8 1C10.2091 1 12 2.79086 12 5V5.66667H13.3333C13.7015 5.66667 14 5.96515 14 6.33333V14.3333C14 14.7015 13.7015 15 13.3333 15H2.66667C2.29848 15 2 14.7015 2 14.3333V6.33333C2 5.96515 2.29848 5.66667 2.66667 5.66667H4ZM12.6667 7H3.33333V13.6667H12.6667V7ZM7.33333 10.8216C6.9348 10.5911 6.66667 10.1602 6.66667 9.66667C6.66667 8.93027 7.2636 8.33333 8 8.33333C8.7364 8.33333 9.33333 8.93027 9.33333 9.66667C9.33333 10.1602 9.0652 10.5911 8.66667 10.8216V12.3333H7.33333V10.8216ZM5.33333 5.66667H10.6667V5C10.6667 3.52724 9.47273 2.33333 8 2.33333C6.52724 2.33333 5.33333 3.52724 5.33333 5V5.66667Z" fill="#313D53"/>
</svg>
