<svg width="16" height="16" viewBox="0 0 16 16" fill="none" xmlns="http://www.w3.org/2000/svg">
<path d="M7.94289 2.11429C8.27111 2.11429 8.53718 2.38036 8.53718 2.70857C8.53712 3.03677 8.27105 3.30286 7.94289 3.30286C5.31715 3.30286 3.18858 5.43143 3.18858 8.05713C3.1886 10.6829 5.31717 12.8114 7.94289 12.8114C10.5686 12.8114 12.6971 10.6829 12.6972 8.05713C12.6972 7.72896 12.9633 7.46284 13.2915 7.46284C13.6197 7.46284 13.8858 7.72896 13.8858 8.05713C13.8857 11.3393 11.225 14 7.94289 14C4.66073 14 2.00002 11.3393 2 8.05713C2 4.775 4.66072 2.11429 7.94289 2.11429ZM7.94289 4.49144C8.27111 4.49144 8.53718 4.7575 8.53718 5.08572C8.53712 5.41392 8.27105 5.68001 7.94289 5.68001C6.63001 5.68001 5.56573 6.74429 5.56573 8.05713C5.56576 9.37003 6.63003 10.4343 7.94289 10.4343C9.25573 10.4343 10.32 9.37003 10.32 8.05713C10.32 7.72896 10.5861 7.46284 10.9143 7.46284C11.2426 7.46284 11.5086 7.72896 11.5086 8.05713C11.5086 10.0264 9.91218 11.6229 7.94289 11.6229C5.9736 11.6229 4.37718 10.0264 4.37716 8.05713C4.37716 6.08786 5.97359 4.49144 7.94289 4.49144ZM11.3043 2.17406C11.5364 1.94198 11.9132 1.94198 12.1453 2.17406C12.3771 2.40612 12.3772 2.78238 12.1453 3.01442L11.7245 3.43402L11.7251 3.4346C11.493 3.66668 11.493 4.04287 11.7251 4.27496C11.9572 4.50696 12.3334 4.50702 12.5654 4.27496L12.9856 3.85478C13.2177 3.62283 13.5939 3.62275 13.826 3.85478C14.0581 4.08682 14.0579 4.46305 13.826 4.69514L12.5654 5.95626C12.4541 6.06763 12.3028 6.12972 12.1453 6.12978H10.7106L8.36305 8.47735C8.13098 8.7093 7.75474 8.70936 7.52273 8.47735C7.29066 8.24528 7.29072 7.8691 7.52273 7.63697L9.86969 5.29001V3.85478C9.86969 3.69721 9.93239 3.54603 10.0438 3.4346L11.3043 2.17406Z" fill="#313D53"/>
</svg>
