<svg width="16" height="16" viewBox="0 0 16 16" fill="none" xmlns="http://www.w3.org/2000/svg">
<path d="M2.77829 13.7V9.8C2.77829 6.92812 5.11613 4.6 7.99999 4.6C10.8839 4.6 13.2217 6.92812 13.2217 9.8V13.7H13.8744V15H2.12558V13.7H2.77829ZM4.08372 9.8H5.38914C5.38914 8.36408 6.55806 7.2 7.99999 7.2V5.9C5.8371 5.9 4.08372 7.64609 4.08372 9.8ZM7.34728 2H8.65271V3.95H7.34728V2ZM13.0769 3.82495L14 4.74419L12.6154 6.12305L11.6923 5.2038L13.0769 3.82495ZM2 4.74419L2.92307 3.82495L4.30769 5.2038L3.38461 6.12305L2 4.74419Z" fill="#313D53"/>
</svg>
