<svg width="16" height="16" viewBox="0 0 16 16" fill="none" xmlns="http://www.w3.org/2000/svg">
<path d="M5.94313 3.85714H9.30805C9.52103 3.85714 9.71907 3.9671 9.83202 4.1481L11.9676 7.57143H14.6911C14.8617 7.57143 15 7.71003 15 7.88095C15 7.93277 14.987 7.98371 14.9623 8.02915L12.5298 12.4971C12.3964 12.5147 12.2603 12.5238 12.122 12.5238C11.1114 12.5238 10.2141 12.0377 9.65048 11.286C9.08684 12.0377 8.18954 12.5238 7.17892 12.5238C6.16829 12.5238 5.27101 12.0377 4.70735 11.286C4.14369 12.0377 3.24641 12.5238 2.23578 12.5238C2.12074 12.5238 2.00716 12.5175 1.89538 12.5052L1.13244 8.30122C1.0714 7.96483 1.29409 7.64256 1.62984 7.5814C1.6663 7.57477 1.7033 7.57143 1.74036 7.57143H2.23578V4.47619C2.23578 4.1343 2.51243 3.85714 2.85367 3.85714H3.47157V2H5.94313V3.85714ZM3.47157 7.57143H10.5103L8.96555 5.09524H3.47157V7.57143ZM2.23578 13.7619C3.1853 13.7619 4.05145 13.4043 4.70735 12.8161C5.36325 13.4043 6.22939 13.7619 7.17892 13.7619C8.12843 13.7619 8.99459 13.4043 9.65048 12.8161C10.3064 13.4043 11.1725 13.7619 12.122 13.7619H13.3578V15H12.122C11.2217 15 10.3776 14.7588 9.65048 14.3374C8.92341 14.7588 8.07924 15 7.17892 15C6.27855 15 5.43442 14.7588 4.70735 14.3374C3.98028 14.7588 3.13614 15 2.23578 15H1V13.7619H2.23578Z" fill="#313D53"/>
</svg>
