<svg width="16" height="16" viewBox="0 0 16 16" fill="none" xmlns="http://www.w3.org/2000/svg">
<path d="M6.52691 12L5.45609 11.7023L5.89258 10.0121C5.23346 9.76023 4.62784 9.39354 4.09824 8.93552L2.90465 10.1739L2.12075 9.36058L3.31434 8.12219C2.65409 7.30042 2.19088 6.30223 2 5.20579L3.09091 5C3.51164 7.41676 5.54948 9.24993 7.99998 9.24993C10.4505 9.24993 12.4884 7.41676 12.9091 5L14 5.20579C13.8091 6.30223 13.3459 7.30042 12.6856 8.12219L13.8792 9.36058L13.0953 10.1739L11.9018 8.93552C11.3721 9.39354 10.7665 9.76023 10.1074 10.0121L10.5439 11.7023L9.47309 12L9.03641 10.3091C8.69956 10.369 8.35329 10.4002 7.99998 10.4002C7.64672 10.4002 7.3004 10.369 6.9636 10.3091L6.52691 12Z" fill="#313D53"/>
</svg>
