<svg width="16" height="16" viewBox="0 0 16 16" fill="none" xmlns="http://www.w3.org/2000/svg">
<path d="M2.6089 10.9995C2.33982 10.5503 2.13785 10.0816 2 9.60406C2.60537 9.30639 3.01992 8.69984 3.01992 7.99999C3.01992 7.30069 2.606 6.69449 2.00137 6.39659C2.27946 5.43021 2.80755 4.53022 3.5584 3.79458C4.1286 4.15101 4.88099 4.19371 5.50996 3.84377C6.13893 3.49382 6.47675 2.84455 6.44153 2.19047C7.47808 1.93165 8.55091 1.94091 9.55839 2.19202C9.52377 2.84557 9.86155 3.4941 10.49 3.84377C11.119 4.1937 11.8714 4.15101 12.4415 3.79462C12.8018 4.14843 13.122 4.55136 13.3911 5.0005C13.6602 5.44964 13.8622 5.91837 14 6.39591C13.3946 6.69357 12.9801 7.30015 12.9801 7.99999C12.9801 8.69936 13.394 9.30549 13.9986 9.6034C13.7206 10.5698 13.1925 11.4698 12.4416 12.2054C11.8714 11.849 11.119 11.8063 10.49 12.1562C9.86105 12.5061 9.52327 13.1555 9.55845 13.8095C8.52197 14.0683 7.44913 14.0591 6.44162 13.808C6.47621 13.1544 6.13843 12.5059 5.50996 12.1562C4.88101 11.8063 4.12865 11.8489 3.55846 12.2053C3.19823 11.8515 2.87798 11.4486 2.6089 10.9995ZM6.13247 11.1172C6.81187 11.4952 7.29979 12.0928 7.53348 12.7786C7.84368 12.807 8.15593 12.8075 8.46619 12.7796C8.69976 12.0934 9.1878 11.4954 9.86752 11.1172C10.5472 10.739 11.3287 10.6307 12.0622 10.7788C12.2423 10.5338 12.3981 10.273 12.5276 9.99994C12.0282 9.46201 11.7351 8.75599 11.7351 7.99999C11.7351 7.244 12.0282 6.53804 12.5276 6.00011C12.4628 5.86453 12.3912 5.73118 12.3129 5.6004C12.2345 5.46961 12.1505 5.34321 12.061 5.22139C11.3279 5.36917 10.5469 5.26082 9.86752 4.88283C9.18812 4.50483 8.70025 3.90717 8.4665 3.2214C8.15637 3.19296 7.84405 3.19255 7.53385 3.22043C7.30023 3.90658 6.81218 4.50464 6.13247 4.88283C5.45274 5.26101 4.67127 5.36928 3.93785 5.22116C3.75767 5.46614 3.60191 5.72696 3.47238 6.00003C3.97179 6.53798 4.26494 7.244 4.26494 7.99999C4.26494 8.75599 3.9718 9.46195 3.47238 9.99988C3.53719 10.1355 3.60876 10.2688 3.68712 10.3996C3.76548 10.5304 3.84952 10.6568 3.93899 10.7786C4.67209 10.6309 5.4531 10.7392 6.13247 11.1172ZM7.99999 9.79969C6.96861 9.79969 6.13247 8.99397 6.13247 7.99999C6.13247 7.00608 6.96861 6.2003 7.99999 6.2003C9.03143 6.2003 9.86752 7.00608 9.86752 7.99999C9.86752 8.99397 9.03143 9.79969 7.99999 9.79969ZM7.99999 8.59989C8.3438 8.59989 8.6225 8.33132 8.6225 7.99999C8.6225 7.66867 8.3438 7.40009 7.99999 7.40009C7.65618 7.40009 7.37748 7.66867 7.37748 7.99999C7.37748 8.33132 7.65618 8.59989 7.99999 8.59989Z" fill="#313D53"/>
</svg>
