<svg width="16" height="16" viewBox="0 0 16 16" fill="none" xmlns="http://www.w3.org/2000/svg">
<path d="M8 14C4.68629 14 2 11.3137 2 8C2 4.68629 4.68629 2 8 2C11.3137 2 14 4.68629 14 8C14 11.3137 11.3137 14 8 14ZM8 12.8C10.651 12.8 12.8 10.651 12.8 8C12.8 5.34903 10.651 3.2 8 3.2C5.34903 3.2 3.2 5.34903 3.2 8C3.2 10.651 5.34903 12.8 8 12.8ZM7.17314 5.84875L10.1005 7.80032C10.2108 7.87382 10.2406 8.02286 10.167 8.13314C10.1494 8.15948 10.1268 8.1821 10.1005 8.19968L7.17314 10.1512C7.06286 10.2248 6.91382 10.195 6.84032 10.0847C6.81404 10.0453 6.8 9.99896 6.8 9.95156V6.04845C6.8 5.91589 6.90746 5.80845 7.04 5.80845C7.0874 5.80845 7.13372 5.82247 7.17314 5.84875Z" fill="#313D53"/>
</svg>
