<svg width="16" height="16" viewBox="0 0 16 16" fill="none" xmlns="http://www.w3.org/2000/svg">
<path d="M8 11.2727C6.19252 11.2727 4.72727 9.80747 4.72727 8C4.72727 6.19252 6.19252 4.72727 8 4.72727C9.80747 4.72727 11.2727 6.19252 11.2727 8C11.2727 9.80747 9.80747 11.2727 8 11.2727ZM8 10.1818C9.20496 10.1818 10.1818 9.20496 10.1818 8C10.1818 6.79501 9.20496 5.81818 8 5.81818C6.79501 5.81818 5.81818 6.79501 5.81818 8C5.81818 9.20496 6.79501 10.1818 8 10.1818ZM7.45455 2H8.54545V3.63636H7.45455V2ZM7.45455 12.3636H8.54545V14H7.45455V12.3636ZM3.37167 4.14305L4.14305 3.37167L5.30014 4.52875L4.52875 5.30014L3.37167 4.14305ZM10.6998 11.4713L11.4713 10.6998L12.6283 11.857L11.857 12.6283L10.6998 11.4713ZM11.857 3.37167L12.6283 4.14305L11.4713 5.30014L10.6998 4.52875L11.857 3.37167ZM4.52875 10.6998L5.30014 11.4713L4.14305 12.6283L3.37167 11.857L4.52875 10.6998ZM14 7.45455V8.54545H12.3636V7.45455H14ZM3.63636 7.45455V8.54545H2V7.45455H3.63636Z" fill="#313D53"/>
</svg>
