<svg width="16" height="16" viewBox="0 0 16 16" fill="none" xmlns="http://www.w3.org/2000/svg">
<path d="M4.67091 7.81253C5.13446 7.81256 5.59421 7.9041 6.02248 8.08109C6.45043 8.25804 6.83941 8.517 7.16701 8.84378C7.4947 9.17072 7.75522 9.55921 7.93264 9.98635C8.11002 10.4137 8.20118 10.8725 8.2012 11.335C8.20117 11.7973 8.10991 12.2555 7.93264 12.6826C7.75524 13.1098 7.49569 13.4992 7.16799 13.8262C6.93518 14.0584 6.55726 14.058 6.32424 13.8262L4.49903 12.0049C4.49642 12.2788 4.27446 12.4999 4.00001 12.5C3.72387 12.5 3.50001 12.2762 3.50001 12C3.50002 11.7261 3.72012 11.5036 3.99317 11.5L2.17481 9.68557C1.94197 9.4531 1.9419 9.0762 2.17481 8.84378C2.5024 8.51702 2.89142 8.25804 3.31934 8.08109C3.7476 7.9041 4.20737 7.81257 4.67091 7.81253ZM13.8252 10.5078C14.0581 10.7402 14.058 11.1172 13.8252 11.3496L12.0352 13.1358C11.8022 13.3682 11.4244 13.3681 11.1914 13.1358L9.10354 11.0528L9.9473 10.211L11.6133 11.8731L12.5596 10.9287L10.8936 9.26663L11.7373 8.42484L13.8252 10.5078ZM4.67091 9.00296C4.36412 9.00299 4.05982 9.06357 3.77638 9.18069C3.6795 9.22075 3.58536 9.26793 3.49512 9.32034L6.69045 12.5078C6.74293 12.4179 6.78997 12.3241 6.8301 12.2276C6.94747 11.9448 7.0078 11.6411 7.00783 11.335C7.00782 11.0289 6.94748 10.7252 6.8301 10.4424C6.71265 10.1596 6.5402 9.90202 6.32326 9.68557C6.10636 9.46926 5.84876 9.29781 5.56544 9.18069C5.28197 9.06355 4.97773 9.00299 4.67091 9.00296ZM9.82327 3.78618C9.9814 3.78619 10.1333 3.84851 10.2451 3.96001L12.0352 5.74613C12.2681 5.97861 12.2682 6.35549 12.0352 6.58793L8.81741 9.7969C8.79857 9.74629 8.78053 9.69452 8.75979 9.64456C8.62087 9.31006 8.44084 8.99468 8.22561 8.70511L10.7696 6.16703L9.82327 5.2227L7.27444 7.76566C6.99303 7.56133 6.68825 7.38945 6.36525 7.25589C6.30165 7.22961 6.23652 7.20492 6.17189 7.18168L9.4014 3.96001L9.44534 3.92094C9.55145 3.83419 9.6849 3.78624 9.82327 3.78618ZM4.67384 2.13384C4.90817 1.94316 5.25423 1.95598 5.47267 2.17388L7.56057 4.25786L6.71682 5.09965L5.05079 3.43657L4.1045 4.3809L5.77052 6.04398L4.92677 6.88578L2.83887 4.8018C2.60589 4.56934 2.60592 4.19248 2.83887 3.96001L4.62892 2.17388L4.67384 2.13384Z" fill="#313D53"/>
</svg>
