<svg width="24" height="24" viewBox="0 0 24 24" fill="none" xmlns="http://www.w3.org/2000/svg">
<path d="M6 6C7.57569 6 9.13602 6.31016 10.5918 6.91309C12.0477 7.51614 13.371 8.40035 14.4854 9.51465C15.5997 10.629 16.4839 11.9523 17.0869 13.4082C17.6898 14.864 18 16.4243 18 18H16C16 16.6868 15.7418 15.3861 15.2393 14.1729C14.7367 12.9596 13.9998 11.8573 13.0713 10.9287C12.1427 10.0002 11.0404 9.26329 9.82715 8.76074C8.61389 8.2582 7.31322 8 6 8V6Z" fill="#04C40C"/>
<path d="M6 10C7.05058 10 8.09092 10.2073 9.06152 10.6094C10.0321 11.0114 10.9144 11.6 11.6572 12.3428C12.4 13.0856 12.9886 13.9679 13.3906 14.9385C13.7927 15.9091 14 16.9494 14 18H12C12 17.2121 11.8445 16.432 11.543 15.7041C11.2414 14.9761 10.7993 14.315 10.2422 13.7578C9.68504 13.2007 9.02385 12.7586 8.2959 12.457C7.56796 12.1555 6.78791 12 6 12V10Z" fill="#04C40C"/>
<path d="M10 18C10 17.4747 9.89654 16.9546 9.69552 16.4693C9.4945 15.984 9.19986 15.543 8.82843 15.1716C8.45699 14.8001 8.01604 14.5055 7.53073 14.3045C7.04543 14.1035 6.52529 14 6 14L6 18H10Z" fill="#04C40C"/>
</svg>
